<?xml version="1.0" encoding="UTF-8"?>
<svg version="1.1" xmlns="http://www.w3.org/2000/svg" width="646" height="402">
<path d="M0 0 C0.79239773 -0.00085442 1.58479546 -0.00170885 2.40120524 -0.00258917 C5.05286821 -0.00423455 7.70446774 0.00126199 10.35612488 0.00672913 C12.25831602 0.00701123 14.16050728 0.00685282 16.06269836 0.00628662 C21.2254703 0.00599954 26.38821903 0.01188189 31.55098557 0.01886058 C36.9468615 0.02510893 42.34273796 0.02569909 47.73861694 0.02688599 C57.95596213 0.02999492 68.17329662 0.03820243 78.3906371 0.04823548 C90.02293658 0.05941018 101.65523657 0.06491049 113.28754008 0.06993091 C137.21559966 0.08038539 161.14364976 0.09797639 185.07170105 0.12025452 C184.92101651 1.86726956 184.76799373 3.61408301 184.61399841 5.36080933 C184.48655684 6.81997631 184.48655684 6.81997631 184.35654068 8.30862141 C183.76454641 14.15215759 182.48878134 19.86801826 181.28019714 25.60975647 C180.82092383 27.81148044 180.38562056 30.01714212 179.9506073 32.22377014 C177.96097819 41.94818778 175.78021271 50.24707223 167.07170105 56.12025452 C166.20931824 56.75253967 166.20931824 56.75253967 165.32951355 57.39759827 C156.9171475 63.22544222 148.03843493 63.46132146 138.07170105 63.12025452 C138.07170105 63.78025452 138.07170105 64.44025452 138.07170105 65.12025452 C137.08170105 64.79025452 136.09170105 64.46025452 135.07170105 64.12025452 C133.70088007 64.03218487 132.32616067 63.998259 130.95251465 64 C130.1153894 63.99862534 129.27826416 63.99725067 128.41577148 63.99583435 C127.5008342 63.99942963 126.58589691 64.0030249 125.64323425 64.00672913 C124.67719269 64.0065831 123.71115112 64.00643707 122.71583557 64.00628662 C119.51802842 64.00698411 116.32027929 64.01476889 113.1224823 64.02259827 C110.90716585 64.02446303 108.69184899 64.02588666 106.47653198 64.02688599 C100.64203251 64.03070659 94.80755788 64.040533 88.97306824 64.05158997 C83.02092322 64.06181389 77.06877419 64.06638571 71.11662292 64.07142639 C59.43497138 64.08215565 47.75333828 64.09922663 36.07170105 64.12025452 C35.74170105 64.78025452 35.41170105 65.44025452 35.07170105 66.12025452 C34.41170105 66.12025452 33.75170105 66.12025452 33.07170105 66.12025452 C33.07170105 86.58025452 33.07170105 107.04025452 33.07170105 128.12025452 C35.71170105 127.79025452 38.35170105 127.46025452 41.07170105 127.12025452 C43.75434893 127.03285632 46.40980781 126.98307342 49.0912323 126.99085999 C49.8505455 126.98910767 50.6098587 126.98735535 51.3921814 126.98554993 C53.88954501 126.98117193 56.38683676 126.98406222 58.88420105 126.98744202 C60.65698764 126.98676616 62.42977414 126.9857938 64.20256042 126.98454285 C67.92799253 126.98306992 71.65340065 126.98520129 75.37882996 126.98988342 C80.051132 126.99548175 84.7233758 126.99227537 89.39567566 126.98643112 C111.64070691 126.96301238 133.8431606 127.23497528 156.07170105 128.12025452 C156.27254623 133.72617038 155.53260788 138.75751025 154.39201355 144.23744202 C154.13277603 145.52233017 154.13277603 145.52233017 153.86830139 146.83317566 C153.31742862 149.55519904 152.75712732 152.27518388 152.19670105 154.99525452 C151.82760899 156.81414278 151.45911387 158.63315229 151.0912323 160.45228577 C149.48660403 168.3578377 147.84415077 176.25040188 146.07170105 184.12025452 C146.73170105 184.45025452 147.39170105 184.78025452 148.07170105 185.12025452 C110.12170105 185.12025452 72.17170105 185.12025452 33.07170105 185.12025452 C33.40170105 203.27025452 33.73170105 221.42025452 34.07170105 240.12025452 C38.13482605 242.22400452 42.19795105 244.32775452 46.38420105 246.49525452 C54.62457744 250.7656953 62.86063291 255.04366003 71.07170105 259.37025452 C71.81210632 259.75995422 72.5525116 260.14965393 73.31535339 260.55116272 C77.32250837 262.66270956 81.32261885 264.78690751 85.3177948 266.92103577 C86.62007019 267.61374573 86.62007019 267.61374573 87.94865417 268.32044983 C89.61207178 269.2054489 91.27364439 270.09392771 92.93302917 270.98646545 C94.05161316 271.58056213 94.05161316 271.58056213 95.1927948 272.18666077 C95.84691345 272.5367218 96.5010321 272.88678284 97.17497253 273.24745178 C99.07086821 274.19883086 99.07086821 274.19883086 101.25163269 274.61610413 C101.85225525 274.78247375 102.45287781 274.94884338 103.07170105 275.12025452 C103.40170105 275.78025452 103.73170105 276.44025452 104.07170105 277.12025452 C106.55404088 278.45894492 109.03179955 279.71319186 111.57170105 280.93275452 C113.03320558 281.65165499 114.49414684 282.37170173 115.95451355 283.09291077 C116.66253113 283.44111877 117.37054871 283.78932678 118.10002136 284.14808655 C120.56346119 285.36272466 123.01601161 286.59115401 125.44670105 287.87025452 C126.44830261 288.38845764 126.44830261 288.38845764 127.47013855 288.91712952 C129.56845244 290.49342386 130.16676713 291.64607743 131.07170105 294.12025452 C130.87010193 297.00404358 130.87010193 297.00404358 130.22892761 300.38587952 C129.99498291 301.65399475 129.76103821 302.92210999 129.52000427 304.22865295 C129.25123668 305.60927614 128.98199915 306.98980791 128.71232605 308.37025452 C128.44422921 309.78966487 128.17713335 311.20926462 127.91099548 312.62904358 C127.35066533 315.60299925 126.78151922 318.57508167 126.20549011 321.54603577 C125.46819914 325.35001798 124.7478266 329.15695005 124.0334053 332.96528625 C123.48243985 335.89676677 122.92507453 338.82699973 122.36551666 341.7568512 C122.09782933 343.15998728 121.83152618 344.56338817 121.56664276 345.96705627 C121.19455278 347.93074767 120.81349436 349.89273323 120.43205261 351.85462952 C120.21728271 352.97063538 120.00251282 354.08664124 119.78123474 355.23646545 C119.147875 357.81065736 118.37596824 359.8275423 117.07170105 362.12025452 C106.9206354 357.45669147 97.00342274 352.65987254 87.3646698 347.00306702 C84.14938959 345.1646743 80.89718073 343.49954279 77.57170105 341.87025452 C71.69326762 338.97645616 65.93848122 335.9009302 60.19670105 332.74525452 C50.86591566 327.6182682 41.48032108 322.60227996 32.07170105 317.62025452 C20.17241417 311.31690805 8.31540245 304.94298872 -3.48664856 298.45887756 C-7.1658075 296.44179642 -10.85259323 294.43873887 -14.53913879 292.43519592 C-23.28599895 287.62111572 -29.32940484 281.53274681 -32.92829895 272.12025452 C-34.22718483 267.25348457 -34.07647209 262.40400647 -34.07546997 257.40574646 C-34.07914666 256.42101589 -34.08282335 255.43628532 -34.08661145 254.42171443 C-34.09763364 251.11858579 -34.10148966 247.81548862 -34.1053009 244.51234436 C-34.11156665 242.1452474 -34.11821355 239.77815142 -34.12521362 237.41105652 C-34.14442718 230.30587439 -34.15503959 223.20069171 -34.16394141 216.09549087 C-34.16832972 212.74570844 -34.1736951 209.39592758 -34.17893028 206.04614639 C-34.19593866 194.90439622 -34.21043175 183.76264701 -34.21767902 172.62088585 C-34.21958877 169.73184076 -34.22150912 166.84279567 -34.22346497 163.95375061 C-34.22394871 163.23573476 -34.22443245 162.51771891 -34.22493085 161.777945 C-34.23322724 150.15236367 -34.25855926 138.52688536 -34.29104564 126.90134899 C-34.32415928 114.95351442 -34.34213164 103.00573212 -34.34532326 91.05785143 C-34.34748432 84.35445331 -34.35661988 77.65122838 -34.38178444 70.94787216 C-34.40508491 64.63920922 -34.40929019 58.33081626 -34.39902306 52.02212143 C-34.39852808 49.71109621 -34.40483722 47.4000576 -34.4185791 45.08907318 C-34.57117405 17.89817515 -34.57117405 17.89817515 -24.99079895 7.84291077 C-17.46199054 1.55464465 -9.55860848 -0.0378098 0 0 Z " fill="#179DE3" transform="translate(174.9282989501953,6.8797454833984375)"/>
<path d="M0 0 C1.25923279 -0.00029205 2.51846558 -0.00058411 3.81585693 -0.00088501 C7.25134112 -0.00145645 10.68668432 0.0102639 14.12213588 0.02426291 C17.7189135 0.03680517 21.31569472 0.03794351 24.91249084 0.04031372 C31.71569606 0.04651825 38.51883663 0.06291509 45.32201344 0.0830127 C53.07050774 0.10540375 60.81900521 0.11637318 68.56752384 0.12640357 C84.49956173 0.14728228 100.43153521 0.18243818 116.36352539 0.22705078 C116.21624668 1.95946849 116.06599863 3.6916339 115.91453552 5.4236908 C115.83119178 6.3883171 115.74784803 7.3529434 115.66197872 8.3468008 C115.22207691 12.5921117 114.43164788 16.73813521 113.58618164 20.91845703 C113.41477158 21.78921371 113.24336151 22.6599704 113.0667572 23.55711365 C112.52509276 26.3023294 111.97571807 29.04593263 111.42602539 31.78955078 C111.06157985 33.62994401 110.69764392 35.47043823 110.33422852 37.31103516 C109.35072082 42.28439489 108.35871415 47.25601713 107.36352539 52.22705078 C106.9903736 54.09285011 106.61724501 55.95865408 106.24414062 57.82446289 C105.95060988 59.29199372 105.65707437 60.7595236 105.36352539 62.22705078 C101.48255521 63.49169771 97.59889584 63.36034035 93.56567383 63.34057617 C92.78480408 63.3407222 92.00393433 63.34086823 91.19940186 63.34101868 C88.6238729 63.3403232 86.04841668 63.3325479 83.47290039 63.32470703 C81.68499796 63.32284155 79.89709502 63.32141826 78.10919189 63.32041931 C73.40741561 63.31660435 68.70567031 63.30678276 64.00390625 63.29571533 C59.20451273 63.28547927 54.40511419 63.28091699 49.60571289 63.27587891 C40.19163679 63.26515959 30.77758367 63.24809541 21.36352539 63.22705078 C21.24679474 63.94519958 21.13006409 64.66334839 21.00979614 65.40325928 C19.76879 72.95377306 18.40839957 80.47543456 16.98071289 87.99267578 C16.76158234 89.15208679 16.54245178 90.3114978 16.31668091 91.50604248 C15.62517325 95.16327557 14.93188086 98.82016761 14.23852539 102.47705078 C13.76575046 104.97572624 13.29309312 107.47442396 12.82055664 109.97314453 C11.66957096 116.05803763 10.51712481 122.1426527 9.36352539 128.22705078 C9.86491531 128.06471954 10.36630524 127.90238831 10.88288879 127.73513794 C14.27213093 127.04094903 17.61005735 127.08801157 21.05371094 127.09765625 C22.20797577 127.09502777 22.20797577 127.09502777 23.38555908 127.09234619 C25.9238105 127.08795199 28.46199204 127.09085624 31.00024414 127.09423828 C32.76333123 127.09356475 34.52641823 127.09259431 36.289505 127.09133911 C39.98061001 127.08986561 43.67169078 127.09200632 47.36279297 127.09667969 C52.10444143 127.10238932 56.84603345 127.09908798 61.58767986 127.09310722 C65.22579885 127.08950293 68.86390432 127.09063937 72.5020237 127.09323502 C74.25120869 127.093904 76.00039489 127.09307685 77.74957848 127.09075546 C80.18692682 127.08822974 82.62418207 127.09206779 85.06152344 127.09765625 C85.79035233 127.09563202 86.51918121 127.09360779 87.27009583 127.09152222 C92.24926005 127.11278544 92.24926005 127.11278544 93.36352539 128.22705078 C93.27403654 136.44527443 91.41119299 144.45229492 89.55102539 152.41455078 C89.17880859 154.09967773 89.17880859 154.09967773 88.79907227 155.81884766 C86.18225365 167.15839497 82.88488816 174.22320088 73.36352539 181.22705078 C67.3254748 184.77165538 60.87141997 185.35461791 53.9909668 185.34057617 C52.75013336 185.34050064 51.50929993 185.34042511 50.23086548 185.34034729 C48.89227253 185.33524191 47.55368 185.33002594 46.21508789 185.32470703 C44.83360851 185.32283985 43.45212847 185.32141736 42.07064819 185.32041931 C38.45064436 185.3166178 34.83068122 185.30680794 31.21069336 185.29571533 C27.51034089 185.28545013 23.80998178 185.28091078 20.10961914 185.27587891 C12.86090275 185.26518336 5.6122198 185.24813563 -1.63647461 185.22705078 C-1.68115372 185.86571579 -1.72583282 186.5043808 -1.77186584 187.16239929 C-2.37438931 194.75603022 -3.5938497 202.1410091 -5.00756836 209.62158203 C-5.24557159 210.90360504 -5.48357483 212.18562805 -5.72879028 213.50650024 C-6.37156858 216.96854823 -7.02042032 220.42943059 -7.67064285 223.89008713 C-8.34922775 227.50644894 -9.02283622 231.12373721 -9.69677734 234.7409668 C-10.52431075 239.18129347 -11.35229241 243.62153368 -12.18269348 248.06132507 C-13.99609018 257.76069762 -15.78227169 267.46465898 -17.55053711 277.17236328 C-18.22062865 280.83903929 -18.89114864 284.50563669 -19.5617981 288.17221069 C-19.98324174 290.4821272 -20.40292793 292.79236512 -20.82077026 295.10293579 C-21.40131666 298.31063852 -21.98884155 301.51699217 -22.57788086 304.72314453 C-22.82563766 306.10803574 -22.82563766 306.10803574 -23.07839966 307.52090454 C-26.92516673 328.29009233 -36.57037371 338.47497154 -53.47631836 350.88720703 C-56.87039036 353.40024675 -60.19685006 355.98579921 -63.51147461 358.60205078 C-64.0928418 359.0605542 -64.67420898 359.51905762 -65.27319336 359.99145508 C-66.45985243 360.92800746 -67.64621104 361.86494066 -68.83227539 362.80224609 C-73.57781277 366.54987209 -78.33551113 370.28210117 -83.0925293 374.01513672 C-84.48538052 375.10845004 -85.8773855 376.20284125 -87.26928711 377.29736328 C-99.95005686 387.22705078 -99.95005686 387.22705078 -102.63647461 387.22705078 C-102.99851312 379.69653222 -101.62097293 372.66084173 -100.23022461 365.27783203 C-99.98285783 363.93374573 -99.73624815 362.5895199 -99.49035645 361.24516296 C-98.84525105 357.72629424 -98.19250043 354.20889465 -97.53729248 350.69189453 C-96.48732317 345.05368566 -95.44515156 339.41406598 -94.41047668 333.77303123 C-94.04881392 331.81086891 -93.68125616 329.84979608 -93.31359863 327.88874817 C-93.09337036 326.69368149 -92.87314209 325.49861481 -92.64624023 324.26733398 C-92.45082642 323.21890823 -92.2554126 322.17048248 -92.05407715 321.09028625 C-91.66435216 318.41818942 -91.55634208 315.92201075 -91.63647461 313.22705078 C-90.97647461 313.22705078 -90.31647461 313.22705078 -89.63647461 313.22705078 C-89.59256592 312.53070023 -89.54865723 311.83434967 -89.50341797 311.11689758 C-88.90588104 302.8344427 -87.65078409 294.75201349 -86.19897461 286.58251953 C-85.93631356 285.08059382 -85.67421135 283.57857029 -85.41259766 282.07646179 C-84.82238084 278.69146618 -84.22927277 275.30699227 -83.63452148 271.92279053 C-82.54710401 265.72726274 -81.47402757 259.52927848 -80.40209961 253.33105469 C-77.93399143 239.06296233 -75.45885176 224.79609643 -72.98196125 210.52952623 C-72.6343291 208.52719281 -72.28671758 206.52485581 -71.9391098 204.52251816 C-60.24010701 137.13346128 -60.24010701 137.13346128 -54.61645508 104.93612671 C-54.05972745 101.74861248 -53.50373084 98.56097237 -52.94848633 95.37319946 C-51.57788963 87.5070732 -50.19796373 79.64274949 -48.79732132 71.7819128 C-47.96021302 67.07663737 -47.14140285 62.36843275 -46.3293705 57.65876865 C-45.73133854 54.20837305 -45.12119189 50.7601853 -44.50857162 47.31235313 C-44.21887588 45.66806159 -43.93391458 44.02292722 -43.65423965 42.37690163 C-41.39167169 29.08763522 -38.93187938 14.86003001 -27.27709961 6.54345703 C-18.09310493 0.74084221 -10.69705584 -0.06512501 0 0 Z " fill="#179CE2" transform="translate(414.636474609375,6.77294921875)"/>
<path d="M0 0 C9.60066284 -0.1876351 18.84012444 -0.29533901 26.53515625 6.1171875 C31.88948154 11.62024404 32.78327978 17.80104582 32.79585266 25.26960754 C32.80159098 26.29705071 32.80159098 26.29705071 32.80744523 27.34525031 C32.81769727 29.62192972 32.81379806 31.89835325 32.80981445 34.17504883 C32.81416531 35.81500988 32.81934971 37.4549689 32.82530212 39.09492493 C32.83866463 43.53721195 32.83927375 47.97941374 32.83673882 52.42171693 C32.83566703 56.13669823 32.84055792 59.85166245 32.84534425 63.56664008 C32.8564304 72.3355368 32.85688216 81.10439068 32.85083008 89.87329102 C32.84479327 98.90338682 32.8570959 107.93332669 32.87840015 116.96339589 C32.89604642 124.73009347 32.90201265 132.49674156 32.8987624 140.26345843 C32.89695389 144.89599167 32.89954235 149.52841373 32.91347694 154.16092873 C32.92609963 158.52027493 32.9240694 162.87937914 32.91106606 167.23872185 C32.90871019 168.83257252 32.91139922 170.42644045 32.91968918 172.0202713 C32.96586951 181.59432822 32.89544891 190.59670671 27.78515625 198.9921875 C19.96566745 206.37726025 11.49577384 206.34074484 1.28515625 206.4296875 C0.19074219 206.45869141 -0.90367188 206.48769531 -2.03125 206.51757812 C-9.80418207 206.57808598 -16.00063304 205.54677945 -22.26831055 200.73168945 C-28.85295171 194.2257531 -28.55200624 184.42706434 -28.71208191 175.70516968 C-28.72858077 172.90924718 -28.71913326 170.11379815 -28.70776367 167.31787109 C-28.70883913 165.7658429 -28.71078172 164.2138151 -28.71351624 162.66178894 C-28.71832479 158.48216889 -28.71075954 154.30265717 -28.70056319 150.12305021 C-28.6917171 145.73019777 -28.6935414 141.33734806 -28.69392395 136.94448853 C-28.69299028 129.57267466 -28.6843459 122.2009022 -28.6706543 114.82910156 C-28.65492034 106.32665828 -28.6496568 97.82426024 -28.65038985 89.32180345 C-28.65106713 80.23674764 -28.6441175 71.15170908 -28.63494325 62.0666585 C-28.63282005 59.46239054 -28.63210319 56.8581254 -28.63170433 54.25385666 C-28.63069411 50.15141225 -28.62454243 46.04900528 -28.61453819 41.94657326 C-28.61163699 40.44786242 -28.61038295 38.94914727 -28.61096573 37.45043373 C-28.61686667 13.02095387 -28.61686667 13.02095387 -22.46484375 6.1171875 C-15.7819314 0.025281 -8.59725799 0.29077535 0 0 Z " fill="#189DE3" transform="translate(87.46484375,96.8828125)"/>
<path d="M0 0 C4.72447369 5.25091504 5.74147596 9.93344357 5.75961304 16.83564758 C5.76414415 17.54889684 5.76867526 18.2621461 5.77334368 18.99700898 C5.78597973 21.3812917 5.78436784 23.76534576 5.78271484 26.1496582 C5.78870062 27.86153456 5.79550629 29.57340821 5.80307007 31.28527832 C5.82073293 35.93207986 5.82542559 40.57880772 5.82670164 45.22563958 C5.82812371 48.13018766 5.8323944 51.03471705 5.83769608 53.93926048 C5.85619778 64.07629967 5.86436657 74.21328628 5.86279297 84.3503418 C5.86159175 93.79286535 5.88268985 103.23516025 5.9142803 112.67762595 C5.94045129 120.78989749 5.95115991 128.90209439 5.94988215 137.01440781 C5.94937273 141.85709718 5.95504485 146.69958336 5.97623825 151.54223061 C5.99563432 156.09857595 5.99573578 160.65452458 5.98120499 165.21088409 C5.97911744 166.87975584 5.9838146 168.54865251 5.9959259 170.21748161 C6.1026061 185.93987783 6.1026061 185.93987783 1.4921875 192.64453125 C-5.21923082 199.35594957 -11.31690479 201.03077427 -20.52148438 201.10351562 C-21.61009766 201.09642578 -22.69871094 201.08933594 -23.8203125 201.08203125 C-24.89732422 201.10201172 -25.97433594 201.12199219 -27.08398438 201.14257812 C-34.58748592 201.1380333 -42.2820763 200.35244747 -48.1574707 195.19702148 C-56.29747947 185.83843972 -54.65570024 173.69551119 -54.63720703 162.02539062 C-54.63856485 160.57530677 -54.64034692 159.12522325 -54.64251709 157.67514038 C-54.64704937 153.76141694 -54.64531839 149.84772007 -54.642138 145.9339962 C-54.6395887 141.81313384 -54.64195942 137.6922736 -54.64352417 133.57141113 C-54.64534003 126.64493405 -54.64295658 119.71846765 -54.63818359 112.79199219 C-54.63275932 104.829387 -54.63449261 96.86680749 -54.64001 88.90420294 C-54.64457844 82.03158778 -54.64517306 75.15898027 -54.64257133 68.28636408 C-54.64102672 64.19804115 -54.64076382 60.1097302 -54.64410782 56.02140808 C-54.66402827 26.90411236 -54.66402827 26.90411236 -54.24951172 15.94335938 C-54.20430389 14.66271606 -54.15909607 13.38207275 -54.11251831 12.06262207 C-53.17818422 6.78131216 -50.98739105 3.01314141 -47.0078125 -0.66796875 C-36.79635747 -7.5607009 -9.77073124 -8.78353301 0 0 Z " fill="#189EE3" transform="translate(582.5078125,102.35546875)"/>
<path d="M0 0 C1.41345703 0.02803711 1.41345703 0.02803711 2.85546875 0.05664062 C8.73969089 0.29184446 12.26444502 0.9054959 16.75 4.8125 C21.88215165 12.51072747 19.89785542 24.95876604 19.8828125 33.90234375 C19.88348836 35.33761105 19.88446072 36.77287823 19.88571167 38.20814514 C19.88717587 41.19924014 19.8850759 44.19030502 19.88037109 47.18139648 C19.87467981 50.98124311 19.87795722 54.78101897 19.88394356 58.580863 C19.88758837 61.5400087 19.88639266 64.49913814 19.88381577 67.45828438 C19.88315702 68.8578651 19.88393729 70.2574474 19.88629532 71.65702629 C19.9158911 94.1542683 19.9158911 94.1542683 17.1875 100.375 C11.95671999 105.60578001 6.72901862 105.99760726 -0.375 106.125 C-5.64547594 106.10739262 -10.83183866 106.03549693 -14.89710999 102.29832458 C-16.94218026 98.54067546 -16.67619671 95.02317871 -16.65405273 90.80883789 C-16.66091599 89.89944962 -16.66777924 88.99006134 -16.67485046 88.05311584 C-16.69315204 85.04697049 -16.6892761 82.04134536 -16.68359375 79.03515625 C-16.68815399 76.94534637 -16.6934591 74.855538 -16.69947815 72.76573181 C-16.70841591 68.38518177 -16.70597858 64.00481398 -16.69604492 59.62426758 C-16.68455558 54.01065531 -16.70476311 48.3976721 -16.73396206 42.78414249 C-16.75230861 38.4681346 -16.75203464 34.15227787 -16.74632454 29.83624077 C-16.74617113 27.76658687 -16.75223163 25.69692284 -16.76461601 23.62730598 C-16.77949447 20.73298822 -16.76887182 17.83983788 -16.75170898 14.94555664 C-16.76137695 14.09084778 -16.77104492 13.23613892 -16.78100586 12.35552979 C-16.73076871 8.30952319 -16.56045129 6.30240598 -14.34364319 2.80418396 C-10.01871329 -1.31012432 -5.65725847 -0.22461524 0 0 Z " fill="#189DE2" transform="translate(620.25,147.1875)"/>
<path d="M0 0 C0.20426709 3.08777477 0.28312009 6.08622692 0.2746582 9.17553711 C0.27976913 10.1268602 0.28488007 11.07818329 0.29014587 12.05833435 C0.30408835 15.21473415 0.3030816 18.37091675 0.30078125 21.52734375 C0.30466565 23.71448346 0.30899978 25.90162241 0.31376648 28.08876038 C0.32123873 32.67793216 0.32093015 37.26702702 0.31567383 41.85620117 C0.30987816 47.74571965 0.32680785 53.63492375 0.3500185 59.52439022 C0.36472949 64.04274852 0.36563113 68.56103065 0.36250877 73.07940865 C0.36302332 75.25119207 0.36828594 77.42297961 0.37832069 79.59473991 C0.39061659 82.62839225 0.38393453 85.66142639 0.37231445 88.69506836 C0.38378006 90.04873505 0.38378006 90.04873505 0.39547729 91.42974854 C0.38846298 92.25556931 0.38144867 93.08139008 0.3742218 93.93223572 C0.37438954 94.6495584 0.37455729 95.36688108 0.37473011 96.10594082 C-0.1174582 98.59368802 -1.01044698 99.46661637 -3 101 C-8.24946834 102.17233784 -13.29927553 102.06051044 -18.625 101.75 C-19.36234375 101.72292969 -20.0996875 101.69585937 -20.859375 101.66796875 C-25.34371092 101.41883898 -28.57671721 100.99073803 -32 98 C-34.70119577 92.80817338 -35.43932395 88.47991043 -35.40405273 82.62133789 C-35.41091599 81.81386612 -35.41777924 81.00639435 -35.42485046 80.17445374 C-35.4430479 77.52367217 -35.43929116 74.87348646 -35.43359375 72.22265625 C-35.43815893 70.36852325 -35.4434655 68.51439194 -35.44947815 66.66026306 C-35.45839539 62.78100698 -35.45600193 58.90195693 -35.44604492 55.02270508 C-35.43455681 50.06522999 -35.45477135 45.10846738 -35.48396206 40.15108585 C-35.50235722 36.323924 -35.502025 32.49693185 -35.49632454 28.66973686 C-35.49617173 26.84259479 -35.50218239 25.01544092 -35.51461601 23.18834114 C-35.52958738 20.62779887 -35.51880482 18.0685597 -35.50170898 15.50805664 C-35.51621094 14.38950287 -35.51621094 14.38950287 -35.53100586 13.24835205 C-35.45703364 7.92526868 -34.26423517 3.30580489 -31 -1 C-26.6972195 -3.57808989 -22.53060816 -3.5181801 -17.625 -3.75 C-16.78710938 -3.80542969 -15.94921875 -3.86085937 -15.0859375 -3.91796875 C-9.38111536 -4.21397367 -4.2837377 -4.2837377 0 0 Z " fill="#189DE2" transform="translate(43,151)"/>
<path d="M0 0 C1.25923279 -0.00029205 2.51846558 -0.00058411 3.81585693 -0.00088501 C7.25134112 -0.00145645 10.68668432 0.0102639 14.12213588 0.02426291 C17.7189135 0.03680517 21.31569472 0.03794351 24.91249084 0.04031372 C31.71569606 0.04651825 38.51883663 0.06291509 45.32201344 0.0830127 C53.07050774 0.10540375 60.81900521 0.11637318 68.56752384 0.12640357 C84.49956173 0.14728228 100.43153521 0.18243818 116.36352539 0.22705078 C116.21624668 1.95946849 116.06599863 3.6916339 115.91453552 5.4236908 C115.83119178 6.3883171 115.74784803 7.3529434 115.66197872 8.3468008 C115.22207691 12.5921117 114.43164788 16.73813521 113.58618164 20.91845703 C113.41477158 21.78921371 113.24336151 22.6599704 113.0667572 23.55711365 C112.52509276 26.3023294 111.97571807 29.04593263 111.42602539 31.78955078 C111.06157985 33.62994401 110.69764392 35.47043823 110.33422852 37.31103516 C109.35072082 42.28439489 108.35871415 47.25601713 107.36352539 52.22705078 C106.9903736 54.09285011 106.61724501 55.95865408 106.24414062 57.82446289 C105.95060988 59.29199372 105.65707437 60.7595236 105.36352539 62.22705078 C101.48255521 63.49169771 97.59889584 63.36034035 93.56567383 63.34057617 C92.78480408 63.3407222 92.00393433 63.34086823 91.19940186 63.34101868 C88.6238729 63.3403232 86.04841668 63.3325479 83.47290039 63.32470703 C81.68499796 63.32284155 79.89709502 63.32141826 78.10919189 63.32041931 C73.40741561 63.31660435 68.70567031 63.30678276 64.00390625 63.29571533 C59.20451273 63.28547927 54.40511419 63.28091699 49.60571289 63.27587891 C40.19163679 63.26515959 30.77758367 63.24809541 21.36352539 63.22705078 C21.24679474 63.94519958 21.13006409 64.66334839 21.00979614 65.40325928 C19.76879 72.95377306 18.40839957 80.47543456 16.98071289 87.99267578 C16.76158234 89.15208679 16.54245178 90.3114978 16.31668091 91.50604248 C15.62517325 95.16327557 14.93188086 98.82016761 14.23852539 102.47705078 C13.76575046 104.97572624 13.29309312 107.47442396 12.82055664 109.97314453 C11.66957096 116.05803763 10.51712481 122.1426527 9.36352539 128.22705078 C9.86491531 128.06471954 10.36630524 127.90238831 10.88288879 127.73513794 C14.27213093 127.04094903 17.61005735 127.08801157 21.05371094 127.09765625 C22.20797577 127.09502777 22.20797577 127.09502777 23.38555908 127.09234619 C25.9238105 127.08795199 28.46199204 127.09085624 31.00024414 127.09423828 C32.76333123 127.09356475 34.52641823 127.09259431 36.289505 127.09133911 C39.98061001 127.08986561 43.67169078 127.09200632 47.36279297 127.09667969 C52.10444143 127.10238932 56.84603345 127.09908798 61.58767986 127.09310722 C65.22579885 127.08950293 68.86390432 127.09063937 72.5020237 127.09323502 C74.25120869 127.093904 76.00039489 127.09307685 77.74957848 127.09075546 C80.18692682 127.08822974 82.62418207 127.09206779 85.06152344 127.09765625 C85.79035233 127.09563202 86.51918121 127.09360779 87.27009583 127.09152222 C92.24926005 127.11278544 92.24926005 127.11278544 93.36352539 128.22705078 C93.27403654 136.44527443 91.41119299 144.45229492 89.55102539 152.41455078 C89.17880859 154.09967773 89.17880859 154.09967773 88.79907227 155.81884766 C86.18225365 167.15839497 82.88488816 174.22320088 73.36352539 181.22705078 C67.3254748 184.77165538 60.87141997 185.35461791 53.9909668 185.34057617 C52.75013336 185.34050064 51.50929993 185.34042511 50.23086548 185.34034729 C48.89227253 185.33524191 47.55368 185.33002594 46.21508789 185.32470703 C44.83360851 185.32283985 43.45212847 185.32141736 42.07064819 185.32041931 C38.45064436 185.3166178 34.83068122 185.30680794 31.21069336 185.29571533 C27.51034089 185.28545013 23.80998178 185.28091078 20.10961914 185.27587891 C12.86090275 185.26518336 5.6122198 185.24813563 -1.63647461 185.22705078 C-1.68115372 185.86571579 -1.72583282 186.5043808 -1.77186584 187.16239929 C-2.37438931 194.75603022 -3.5938497 202.1410091 -5.00756836 209.62158203 C-5.24557159 210.90360504 -5.48357483 212.18562805 -5.72879028 213.50650024 C-6.37156858 216.96854823 -7.02042032 220.42943059 -7.67064285 223.89008713 C-8.34922775 227.50644894 -9.02283622 231.12373721 -9.69677734 234.7409668 C-10.52431075 239.18129347 -11.35229241 243.62153368 -12.18269348 248.06132507 C-13.99609018 257.76069762 -15.78227169 267.46465898 -17.55053711 277.17236328 C-18.22062865 280.83903929 -18.89114864 284.50563669 -19.5617981 288.17221069 C-19.98324174 290.4821272 -20.40292793 292.79236512 -20.82077026 295.10293579 C-21.40131666 298.31063852 -21.98884155 301.51699217 -22.57788086 304.72314453 C-22.74305206 305.64640533 -22.90822327 306.56966614 -23.07839966 307.52090454 C-26.09341623 323.79936493 -26.09341623 323.79936493 -30.69897461 330.28955078 C-31.20557617 331.02302734 -31.71217773 331.75650391 -32.23413086 332.51220703 C-33.63647461 334.22705078 -33.63647461 334.22705078 -35.63647461 335.22705078 C-34.61054377 333.14330468 -33.55957607 331.08836545 -32.43310547 329.05679321 C-28.99992379 322.68792423 -27.39329842 316.72853913 -26.19897461 309.62548828 C-25.89721313 307.95104141 -25.89721313 307.95104141 -25.58935547 306.24276733 C-25.15520526 303.83212059 -24.72709038 301.42038055 -24.30444336 299.00769043 C-23.50771359 294.49827565 -22.67017616 289.997093 -21.82821655 285.49593735 C-21.70483917 284.83633137 -21.58146179 284.17672539 -21.4543457 283.49713135 C-21.3300116 282.8325013 -21.20567749 282.16787125 -21.07757568 281.48310089 C-20.43853563 278.05753251 -19.80695272 274.63059392 -19.17553711 271.20361328 C-19.04885651 270.5161414 -18.9221759 269.82866951 -18.79165649 269.12036514 C-18.53503917 267.72768685 -18.27843722 266.33500572 -18.02185059 264.94232178 C-17.509224 262.16184619 -16.99526664 259.38161726 -16.48134232 256.6013813 C-10.3301874 223.34754727 -10.3301874 223.34754727 -4.53808594 190.02987671 C-3.74673238 185.44756632 -3.74673238 185.44756632 -2.63647461 183.22705078 C-1.45162727 183.22158234 -1.45162727 183.22158234 -0.24284363 183.21600342 C7.24451688 183.17794993 14.7313893 183.12090321 22.21843433 183.04314804 C26.06653728 183.00383741 29.91441702 182.97156945 33.76269531 182.95605469 C37.48477524 182.94077858 41.20624084 182.90614346 44.92804527 182.85874176 C46.33956208 182.84403968 47.75116666 182.83601627 49.16275978 182.83516693 C59.76356002 182.82238777 70.82033242 181.91225034 78.88769531 174.21630859 C85.13698714 165.79294552 86.75004985 153.96113034 88.67602539 143.91455078 C88.94124193 142.57644972 89.20751356 141.23855734 89.47485352 139.90087891 C90.11474509 136.67815225 90.74410198 133.45376236 91.36352539 130.22705078 C90.37016174 130.22927139 89.3767981 130.231492 88.35333252 130.23377991 C78.99511246 130.25404527 69.63689684 130.26903932 60.27865982 130.27886295 C55.46742082 130.28408313 50.65619952 130.29116513 45.8449707 130.30249023 C41.20251033 130.31334977 36.560067 130.31933415 31.91759491 130.32192802 C30.14576703 130.32377673 28.37394008 130.32738673 26.60211945 130.33278084 C24.12185139 130.34003192 21.64165389 130.34104 19.16137695 130.34057617 C18.42769897 130.34417145 17.694021 130.34776672 16.93811035 130.35147095 C13.60269018 130.34471458 10.55219931 130.26610713 7.36352539 129.22705078 C9.23237517 115.06372041 11.59757873 101.05639034 14.38012695 87.04443359 C15.00155481 83.9113599 15.6126981 80.77639074 16.22290039 77.64111328 C16.61553905 75.64360128 17.00874529 73.64620075 17.40258789 71.64892578 C17.58487946 70.71377136 17.76717102 69.77861694 17.95498657 68.81512451 C18.12541473 67.96202698 18.2958429 67.10892944 18.47143555 66.22998047 C18.62005035 65.47835632 18.76866516 64.72673218 18.92178345 63.95233154 C19.36352539 62.22705078 19.36352539 62.22705078 20.36352539 61.22705078 C22.94902311 61.10199993 25.5091395 61.04100278 28.09619141 61.02172852 C29.31072998 61.00687912 29.31072998 61.00687912 30.54980469 60.99172974 C33.23898344 60.96002091 35.92817989 60.93532043 38.61743164 60.91064453 C40.47688773 60.89008309 42.33633907 60.86908685 44.19578552 60.84767151 C49.09976354 60.79236712 54.00378432 60.74299489 58.90783691 60.69482422 C63.90807927 60.64467012 68.90825921 60.58895233 73.90844727 60.53369141 C83.72675338 60.42600757 93.54511358 60.32458546 103.36352539 60.22705078 C103.46376511 59.66456635 103.56400482 59.10208191 103.6672821 58.52255249 C107.02159718 39.71635979 110.69051641 20.97302325 114.36352539 2.22705078 C97.96009747 2.28767519 81.55684963 2.36523827 65.15360355 2.46276569 C57.53666127 2.50766156 49.91976509 2.5470904 42.30273438 2.57348633 C35.66090426 2.59651686 29.01922082 2.62997096 22.37750715 2.67575234 C18.86330895 2.69961676 15.34925539 2.71838977 11.8349781 2.72466469 C7.90430987 2.73187894 3.97400288 2.76237275 0.04345703 2.79467773 C-1.11172928 2.79324265 -2.26691559 2.79180756 -3.45710754 2.79032898 C-13.41882094 2.90587472 -21.61508521 4.73060302 -29.15991211 11.61767578 C-37.6186821 20.46288704 -39.59428363 32.56501057 -41.32397461 44.22705078 C-41.71804612 46.79042856 -42.11754475 49.35297955 -42.52319336 51.91455078 C-42.69036865 53.03216797 -42.85754395 54.14978516 -43.02978516 55.30126953 C-43.58018789 57.95560608 -44.28614728 59.89701864 -45.63647461 62.22705078 C-45.95052624 54.94105295 -44.77267131 48.12896432 -43.44897461 40.97705078 C-43.25239258 39.82591797 -43.05581055 38.67478516 -42.85327148 37.48876953 C-40.69329497 25.69862078 -37.42694132 13.7861421 -27.27709961 6.54345703 C-18.09310493 0.74084221 -10.69705584 -0.06512501 0 0 Z " fill="#0E669C" transform="translate(414.636474609375,6.77294921875)"/>
<path d="M0 0 C-0.96099609 0.38478516 -0.96099609 0.38478516 -1.94140625 0.77734375 C-9.63419697 4.18234948 -14.74404166 8.67439765 -18.0692234 16.52409744 C-19.2883258 21.07672711 -19.28300495 25.30084256 -19.26742554 29.99334717 C-19.27195665 30.99597194 -19.27648776 31.99859671 -19.28115618 33.03160405 C-19.29381046 36.38928036 -19.29217912 39.74679468 -19.29052734 43.10449219 C-19.29651197 45.51276864 -19.30331737 47.92104318 -19.31088257 50.32931519 C-19.32672133 56.1913099 -19.3329913 62.05326667 -19.33410732 67.9152784 C-19.33505877 72.68240872 -19.33917386 77.44952579 -19.34550858 82.21665192 C-19.36311673 95.7435851 -19.37234823 109.27048659 -19.37084763 122.79743132 C-19.37076772 123.52621258 -19.3706878 124.25499384 -19.37060547 125.00585938 C-19.37052371 125.7355345 -19.37044195 126.46520962 -19.37035771 127.2169961 C-19.36954515 139.03719069 -19.38867634 150.85725775 -19.4168822 162.67741546 C-19.44564043 174.82529608 -19.45942085 186.97311458 -19.45769465 199.12103009 C-19.45703171 205.93670619 -19.46248144 212.75224862 -19.48405075 219.56789398 C-19.50421338 225.97996949 -19.5035588 232.39183594 -19.48901749 238.80392838 C-19.48692798 241.15407092 -19.49163869 243.50423109 -19.5037384 245.85434341 C-19.51921625 249.06946487 -19.50986508 252.28361708 -19.49447632 255.49871826 C-19.50990701 256.88464648 -19.50990701 256.88464648 -19.52564943 258.29857326 C-19.42895501 267.47775592 -16.57493192 275.50276299 -10 282 C-7.0192335 284.08664467 -7.0192335 284.08664467 -3.6875 285.8125 C-2.44130872 286.49461351 -1.19521895 287.17691251 0.05078125 287.859375 C0.69740723 288.20806641 1.3440332 288.55675781 2.01025391 288.91601562 C4.01509736 290.00822482 5.99944654 291.13084116 7.98046875 292.265625 C14.12052066 295.77978512 20.27383111 299.18996828 26.625 302.3125 C36.58960165 307.21571669 46.27068426 312.64954872 56 318 C69.07017942 325.18761374 82.19778436 332.26088205 95.375 339.25 C96.08289673 339.62618469 96.79079346 340.00236938 97.5201416 340.38995361 C107.60577897 345.7467221 117.76419592 350.93609693 128 356 C131.07436218 340.32997926 134.10170971 324.65206368 136.97381592 308.943573 C137.24087017 307.48338796 137.50881192 306.02336495 137.77764893 304.56350708 C138.15407424 302.51680048 138.5268546 300.46946558 138.8984375 298.421875 C139.11161621 297.25237305 139.32479492 296.08287109 139.54443359 294.87792969 C140.0781749 291.99177644 140.0781749 291.99177644 140 289 C139.28158936 288.6282666 138.56317871 288.2565332 137.82299805 287.87353516 C113.59356359 275.33274007 113.59356359 275.33274007 101.56494141 268.96899414 C96.60718036 266.35347827 91.63072818 263.77567363 86.64453125 261.21484375 C85.65261276 260.70491882 85.65261276 260.70491882 84.64065552 260.18469238 C81.36675195 258.50185719 78.09149465 256.82177875 74.81347656 255.14697266 C64.07935286 249.63443923 53.58854256 243.82369841 43 238 C43 218.86 43 199.72 43 180 C80.62 180 118.24 180 157 180 C157 180.33 157 180.66 157 181 C120.04 181 83.08 181 45 181 C45.33 199.48 45.66 217.96 46 237 C50.063125 239.10375 54.12625 241.2075 58.3125 243.375 C66.55287639 247.64544078 74.78893186 251.92340551 83 256.25 C83.74040527 256.63969971 84.48081055 257.02939941 85.24365234 257.4309082 C89.25080732 259.54245504 93.2509178 261.66665299 97.24609375 263.80078125 C98.54836914 264.49349121 98.54836914 264.49349121 99.87695312 265.20019531 C101.54037073 266.08519438 103.20194334 266.97367319 104.86132812 267.86621094 C105.97991211 268.46030762 105.97991211 268.46030762 107.12109375 269.06640625 C107.7752124 269.41646729 108.42933105 269.76652832 109.10327148 270.12719727 C110.99916716 271.07857634 110.99916716 271.07857634 113.17993164 271.49584961 C113.7805542 271.66221924 114.38117676 271.82858887 115 272 C115.33 272.66 115.66 273.32 116 274 C118.48233983 275.33869041 120.9600985 276.59293734 123.5 277.8125 C124.96150453 278.53140047 126.42244579 279.25144722 127.8828125 279.97265625 C128.59083008 280.32086426 129.29884766 280.66907227 130.02832031 281.02783203 C132.49176014 282.24247014 134.94431056 283.47089949 137.375 284.75 C138.37660156 285.26820313 138.37660156 285.26820313 139.3984375 285.796875 C141.49675139 287.37316934 142.09506608 288.52582291 143 291 C142.79840088 293.88378906 142.79840088 293.88378906 142.15722656 297.265625 C141.92328186 298.53374023 141.68933716 299.80185547 141.44830322 301.10839844 C141.17953563 302.48902162 140.9102981 303.8695534 140.640625 305.25 C140.37252816 306.66941035 140.1054323 308.0890101 139.83929443 309.50878906 C139.27896428 312.48274473 138.70981817 315.45482716 138.13378906 318.42578125 C137.39649809 322.22976346 136.67612556 326.03669554 135.96170425 329.84503174 C135.4107388 332.77651225 134.85337348 335.70674521 134.29381561 338.63659668 C134.02612828 340.03973276 133.75982513 341.44313365 133.49494171 342.84680176 C133.12285173 344.81049315 132.74179331 346.77247872 132.36035156 348.734375 C132.14558167 349.85038086 131.93081177 350.96638672 131.70953369 352.11621094 C131.07617395 354.69040284 130.30426719 356.70728778 129 359 C118.84893435 354.33643695 108.93172169 349.53961802 99.29296875 343.8828125 C96.07768854 342.04441978 92.82547968 340.37928827 89.5 338.75 C83.62156657 335.85620164 77.86678017 332.78067568 72.125 329.625 C62.79421461 324.49801368 53.40862004 319.48202544 44 314.5 C32.10071312 308.19665353 20.2437014 301.82273421 8.44165039 295.33862305 C4.76249145 293.32154191 1.07570572 291.31848435 -2.61083984 289.31494141 C-11.3577 284.50086121 -17.40110589 278.41249229 -21 269 C-22.29888588 264.13323006 -22.14817314 259.28375196 -22.14717102 254.28549194 C-22.15084771 253.30076137 -22.1545244 252.3160308 -22.1583125 251.30145991 C-22.16933469 247.99833127 -22.17319071 244.69523411 -22.17700195 241.39208984 C-22.1832677 239.02499288 -22.1899146 236.6578969 -22.19691467 234.290802 C-22.21612823 227.18561987 -22.22674064 220.08043719 -22.23564246 212.97523636 C-22.24003077 209.62545393 -22.24539615 206.27567307 -22.25063133 202.92589188 C-22.26763971 191.7841417 -22.2821328 180.64239249 -22.28938007 169.50063133 C-22.29128982 166.61158624 -22.29321017 163.72254116 -22.29516602 160.83349609 C-22.29564976 160.11548024 -22.2961335 159.39746439 -22.2966319 158.65769048 C-22.30492829 147.03210915 -22.3302603 135.40663084 -22.36274669 123.78109448 C-22.39586033 111.8332599 -22.41383269 99.88547761 -22.41702431 87.93759692 C-22.41918537 81.23419879 -22.42832093 74.53097386 -22.45348549 67.82761765 C-22.47678596 61.51895471 -22.48099124 55.21056175 -22.47072411 48.90186691 C-22.47022913 46.59084169 -22.47653827 44.27980308 -22.49028015 41.96881866 C-22.64242102 14.85883394 -22.64242102 14.85883394 -12.8671875 4.6640625 C-8.90872521 1.13622791 -5.41785838 -1.78234557 0 0 Z " fill="#0B5D91" transform="translate(163,10)"/>
<path d="M0 0 C9.60066284 -0.1876351 18.84012444 -0.29533901 26.53515625 6.1171875 C31.88948154 11.62024404 32.78327978 17.80104582 32.79585266 25.26960754 C32.80159098 26.29705071 32.80159098 26.29705071 32.80744523 27.34525031 C32.81769727 29.62192972 32.81379806 31.89835325 32.80981445 34.17504883 C32.81416531 35.81500988 32.81934971 37.4549689 32.82530212 39.09492493 C32.83866463 43.53721195 32.83927375 47.97941374 32.83673882 52.42171693 C32.83566703 56.13669823 32.84055792 59.85166245 32.84534425 63.56664008 C32.8564304 72.3355368 32.85688216 81.10439068 32.85083008 89.87329102 C32.84479327 98.90338682 32.8570959 107.93332669 32.87840015 116.96339589 C32.89604642 124.73009347 32.90201265 132.49674156 32.8987624 140.26345843 C32.89695389 144.89599167 32.89954235 149.52841373 32.91347694 154.16092873 C32.92609963 158.52027493 32.9240694 162.87937914 32.91106606 167.23872185 C32.90871019 168.83257252 32.91139922 170.42644045 32.91968918 172.0202713 C32.96586951 181.59432822 32.89544891 190.59670671 27.78515625 198.9921875 C19.96566745 206.37726025 11.49577384 206.34074484 1.28515625 206.4296875 C0.19074219 206.45869141 -0.90367188 206.48769531 -2.03125 206.51757812 C-9.80418207 206.57808598 -16.00063304 205.54677945 -22.26831055 200.73168945 C-28.85295171 194.2257531 -28.55200624 184.42706434 -28.71208191 175.70516968 C-28.72858077 172.90924718 -28.71913326 170.11379815 -28.70776367 167.31787109 C-28.70883913 165.7658429 -28.71078172 164.2138151 -28.71351624 162.66178894 C-28.71832479 158.48216889 -28.71075954 154.30265717 -28.70056319 150.12305021 C-28.6917171 145.73019777 -28.6935414 141.33734806 -28.69392395 136.94448853 C-28.69299028 129.57267466 -28.6843459 122.2009022 -28.6706543 114.82910156 C-28.65492034 106.32665828 -28.6496568 97.82426024 -28.65038985 89.32180345 C-28.65106713 80.23674764 -28.6441175 71.15170908 -28.63494325 62.0666585 C-28.63282005 59.46239054 -28.63210319 56.8581254 -28.63170433 54.25385666 C-28.63069411 50.15141225 -28.62454243 46.04900528 -28.61453819 41.94657326 C-28.61163699 40.44786242 -28.61038295 38.94914727 -28.61096573 37.45043373 C-28.61686667 13.02095387 -28.61686667 13.02095387 -22.46484375 6.1171875 C-15.7819314 0.025281 -8.59725799 0.29077535 0 0 Z M-1.46484375 2.3046875 C-2.6146875 2.32337891 -3.76453125 2.34207031 -4.94921875 2.36132812 C-11.59262842 2.57945851 -16.18130478 2.93672781 -21.46484375 7.1171875 C-25.15925373 11.71080063 -25.96605995 14.77790691 -25.97277832 20.63183594 C-25.97901828 21.36776852 -25.98525825 22.1037011 -25.9916873 22.86193466 C-26.00758646 25.31714077 -25.99502583 27.7713498 -25.98242188 30.2265625 C-25.98784439 31.99109474 -25.99496777 33.75562245 -26.00366211 35.5201416 C-26.02188308 40.30527364 -26.01483299 45.09006036 -26.00214577 49.87519836 C-25.99201177 54.88523279 -26.00141256 59.89523784 -26.00769043 64.90527344 C-26.01496566 73.31841332 -26.00538237 81.7314127 -25.98632812 90.14453125 C-25.96455964 99.86831293 -25.9716111 109.59175913 -25.99363375 119.31553268 C-26.01179126 127.66729985 -26.01434434 136.01896608 -26.00387907 144.37074661 C-25.99764609 149.35753121 -25.99680319 154.34415817 -26.01002502 159.33093262 C-26.02158799 164.01946196 -26.01354962 168.70755916 -25.990448 173.39604187 C-25.98516329 175.11573062 -25.98667062 176.8354558 -25.99549866 178.55513 C-26.00644763 180.90475568 -25.99270002 183.25300108 -25.97277832 185.60253906 C-25.97127022 186.91659729 -25.96976212 188.23065552 -25.96820831 189.58453369 C-25.18161591 195.10490372 -22.78530624 198.12010358 -18.40234375 201.4296875 C-12.50907247 204.81518377 -6.93516739 204.37250047 -0.2878418 204.41235352 C1.69831533 204.42947764 3.68418312 204.47336326 5.66992188 204.51757812 C13.11878329 204.56675801 18.25971319 204.26278322 24.53515625 200.1171875 C29.83128456 194.82105919 30.7825533 189.13494928 30.80931091 181.84378052 C30.81454759 181.13376038 30.81978427 180.42374025 30.82517964 179.69220436 C30.84012185 177.32485578 30.8408835 174.95772444 30.84155273 172.59033203 C30.84917802 170.88815956 30.85760616 169.18599053 30.86677551 167.48382568 C30.8886887 162.86808186 30.89751493 158.25240428 30.90260196 153.63661432 C30.90624875 150.75098927 30.91249044 147.86538149 30.91960335 144.97976303 C30.94408508 134.90756215 30.95714735 124.8354127 30.96069336 114.76318359 C30.96432946 105.38250841 30.99423346 96.00216024 31.03609794 86.62158501 C31.07081044 78.56024785 31.08624195 70.49901904 31.08693939 62.43760765 C31.08773176 57.62617715 31.09645235 52.81508006 31.12493706 48.00372696 C31.15113477 43.47767519 31.15331352 38.9522329 31.13728142 34.42613983 C31.13546838 32.76854751 31.14214457 31.11091999 31.15810013 29.45340347 C31.44841684 18.37864243 31.44841684 18.37864243 26.93742466 8.51510429 C19.14446016 0.74632346 8.70117681 1.96847942 -1.46484375 2.3046875 Z " fill="#0E6195" transform="translate(87.46484375,96.8828125)"/>
<path d="M0 0 C4.72447369 5.25091504 5.74147596 9.93344357 5.75961304 16.83564758 C5.76414415 17.54889684 5.76867526 18.2621461 5.77334368 18.99700898 C5.78597973 21.3812917 5.78436784 23.76534576 5.78271484 26.1496582 C5.78870062 27.86153456 5.79550629 29.57340821 5.80307007 31.28527832 C5.82073293 35.93207986 5.82542559 40.57880772 5.82670164 45.22563958 C5.82812371 48.13018766 5.8323944 51.03471705 5.83769608 53.93926048 C5.85619778 64.07629967 5.86436657 74.21328628 5.86279297 84.3503418 C5.86159175 93.79286535 5.88268985 103.23516025 5.9142803 112.67762595 C5.94045129 120.78989749 5.95115991 128.90209439 5.94988215 137.01440781 C5.94937273 141.85709718 5.95504485 146.69958336 5.97623825 151.54223061 C5.99563432 156.09857595 5.99573578 160.65452458 5.98120499 165.21088409 C5.97911744 166.87975584 5.9838146 168.54865251 5.9959259 170.21748161 C6.1026061 185.93987783 6.1026061 185.93987783 1.4921875 192.64453125 C-5.21923082 199.35594957 -11.31690479 201.03077427 -20.52148438 201.10351562 C-21.61009766 201.09642578 -22.69871094 201.08933594 -23.8203125 201.08203125 C-24.89732422 201.10201172 -25.97433594 201.12199219 -27.08398438 201.14257812 C-34.65904978 201.13798996 -42.1758308 200.27480974 -48.19287109 195.23242188 C-50.85512209 192.2842219 -52.15977029 189.58900958 -52.5078125 185.64453125 C-52.1159375 186.20140625 -51.7240625 186.75828125 -51.3203125 187.33203125 C-47.61799913 192.05567244 -44.17681702 195.52544649 -38.5078125 197.64453125 C-34.0447285 198.08725409 -29.61432944 198.0628077 -25.1328125 198.01953125 C-23.34230469 198.03693359 -23.34230469 198.03693359 -21.515625 198.0546875 C-10.99268117 198.10728372 -10.99268117 198.10728372 -1.9597168 193.22802734 C2.24304844 188.43815995 2.61893682 184.79205134 2.63935852 178.61126709 C2.64303521 177.89085401 2.6467119 177.17044093 2.6505 176.42819715 C2.6615364 174.00778831 2.6653806 171.58742242 2.66918945 169.16699219 C2.67545413 167.43408573 2.68210093 165.70118062 2.68910217 163.96827698 C2.71014401 158.27182959 2.72050446 152.57538192 2.73046875 146.87890625 C2.73451622 144.91802201 2.73863314 142.95713792 2.74281883 140.99625397 C2.76187053 131.78425504 2.77610178 122.57226413 2.7844308 113.36024928 C2.79420449 102.72594013 2.82052755 92.09183905 2.86093169 81.45760322 C2.89108867 73.23839127 2.90589927 65.01923898 2.90921181 56.79997277 C2.91156273 51.8907627 2.92052864 46.98177494 2.94567299 42.07262421 C2.96895146 37.45312784 2.97318786 32.83400018 2.96291161 28.21446037 C2.96241608 26.52097535 2.96874138 24.8274722 2.98246765 23.13404274 C3.00019083 20.81749815 2.99307953 18.50227621 2.97993469 16.18572998 C2.98232305 14.89082012 2.9847114 13.59591026 2.98717213 12.26176071 C2.36706107 7.73013716 1.05801436 5.41353827 -1.5078125 1.64453125 C-7.64563953 -2.57701191 -14.52965508 -1.84258361 -21.67504883 -1.80151367 C-23.9359853 -1.79300386 -26.19439065 -1.82179962 -28.45507812 -1.85351562 C-29.90885342 -1.85512812 -31.36263313 -1.85454919 -32.81640625 -1.8515625 C-34.77791626 -1.85434204 -34.77791626 -1.85434204 -36.77905273 -1.85717773 C-41.37732131 -1.23847532 -43.6852877 0.05442629 -47.5078125 2.64453125 C-51.38271407 7.81106668 -51.63390809 12.36051886 -51.66603088 18.69329834 C-51.67096886 19.4031706 -51.67590684 20.11304286 -51.68099445 20.84442639 C-51.69635103 23.22277933 -51.70472507 25.6011053 -51.71313477 27.97949219 C-51.72271474 29.68449643 -51.73272489 31.3894983 -51.74313354 33.09449768 C-51.77017577 37.7242633 -51.79118905 42.3540391 -51.81113553 46.98383999 C-51.83299927 51.82186681 -51.86038607 56.65986226 -51.88719177 61.49786377 C-51.93711339 70.65982413 -51.98205421 79.82180192 -52.02521414 88.98379636 C-52.07459103 99.41418296 -52.12950749 109.84453808 -52.18489373 120.27489424 C-52.29870564 141.73141058 -52.40554642 163.18795698 -52.5078125 184.64453125 C-54.62291271 181.18125296 -54.75702663 178.4592315 -54.75505066 174.4382019 C-54.76134239 172.52530365 -54.76134239 172.52530365 -54.76776123 170.57376099 C-54.76227752 169.16229172 -54.75659454 167.75082321 -54.75073242 166.33935547 C-54.75180563 164.85074785 -54.75374489 163.36214064 -54.75648499 161.87353516 C-54.76133619 157.82719676 -54.75366947 153.78096854 -54.74353194 149.73464346 C-54.73473251 145.48562341 -54.73650941 141.23660665 -54.7368927 136.98757935 C-54.7359554 129.83691577 -54.72727099 122.68629455 -54.71362305 115.53564453 C-54.69798096 107.31072917 -54.69262207 99.08586045 -54.6933586 90.86093128 C-54.69403932 82.06747378 -54.68705958 73.27403389 -54.677912 64.48058176 C-54.67579783 61.96891492 -54.67507312 59.45725099 -54.67467308 56.94558334 C-54.66478677 26.91450677 -54.66478677 26.91450677 -54.24731445 15.87548828 C-54.20242386 14.60464386 -54.15753326 13.33379944 -54.11128235 12.02444458 C-53.17257799 6.76695016 -50.96921883 2.9963321 -47.0078125 -0.66796875 C-36.79635747 -7.5607009 -9.77073124 -8.78353301 0 0 Z " fill="#0C5A8C" transform="translate(582.5078125,102.35546875)"/>
<path d="M0 0 C1.25923279 -0.00029205 2.51846558 -0.00058411 3.81585693 -0.00088501 C7.25134112 -0.00145645 10.68668432 0.0102639 14.12213588 0.02426291 C17.7189135 0.03680517 21.31569472 0.03794351 24.91249084 0.04031372 C31.71569606 0.04651825 38.51883663 0.06291509 45.32201344 0.0830127 C53.07050774 0.10540375 60.81900521 0.11637318 68.56752384 0.12640357 C84.49956173 0.14728228 100.43153521 0.18243818 116.36352539 0.22705078 C116.21624668 1.95946849 116.06599863 3.6916339 115.91453552 5.4236908 C115.83119178 6.3883171 115.74784803 7.3529434 115.66197872 8.3468008 C115.22207691 12.5921117 114.43164788 16.73813521 113.58618164 20.91845703 C113.41477158 21.78921371 113.24336151 22.6599704 113.0667572 23.55711365 C112.52509276 26.3023294 111.97571807 29.04593263 111.42602539 31.78955078 C111.06157985 33.62994401 110.69764392 35.47043823 110.33422852 37.31103516 C109.35071962 42.28440092 108.3584632 47.25595821 107.36352539 52.22705078 C106.37352539 57.17705078 106.37352539 57.17705078 105.36352539 62.22705078 C77.31352539 62.22705078 49.26352539 62.22705078 20.36352539 62.22705078 C20.36352539 61.89705078 20.36352539 61.56705078 20.36352539 61.22705078 C47.75352539 60.89705078 75.14352539 60.56705078 103.36352539 60.22705078 C104.68352539 52.96705078 106.00352539 45.70705078 107.36352539 38.22705078 C108.60229741 31.76630077 109.84834263 25.30758842 111.11352539 18.85205078 C111.43266565 17.21796155 111.75167623 15.58384699 112.07055664 13.94970703 C112.83340055 10.04186434 113.59794364 6.13435798 114.36352539 2.22705078 C97.96009747 2.28767519 81.55684963 2.36523827 65.15360355 2.46276569 C57.53666127 2.50766156 49.91976509 2.5470904 42.30273438 2.57348633 C35.66090426 2.59651686 29.01922082 2.62997096 22.37750715 2.67575234 C18.86330895 2.69961676 15.34925539 2.71838977 11.8349781 2.72466469 C7.90430987 2.73187894 3.97400288 2.76237275 0.04345703 2.79467773 C-1.11172928 2.79324265 -2.26691559 2.79180756 -3.45710754 2.79032898 C-13.41882094 2.90587472 -21.61508521 4.73060302 -29.15991211 11.61767578 C-37.6186821 20.46288704 -39.59428363 32.56501057 -41.32397461 44.22705078 C-41.71804612 46.79042856 -42.11754475 49.35297955 -42.52319336 51.91455078 C-42.69036865 53.03216797 -42.85754395 54.14978516 -43.02978516 55.30126953 C-43.58018789 57.95560608 -44.28614728 59.89701864 -45.63647461 62.22705078 C-45.95052624 54.94105295 -44.77267131 48.12896432 -43.44897461 40.97705078 C-43.25239258 39.82591797 -43.05581055 38.67478516 -42.85327148 37.48876953 C-40.69329497 25.69862078 -37.42694132 13.7861421 -27.27709961 6.54345703 C-18.09310493 0.74084221 -10.69705584 -0.06512501 0 0 Z " fill="#095285" transform="translate(414.636474609375,6.77294921875)"/>
<path d="M0 0 C0.79068888 -0.00170885 1.58137776 -0.0034177 2.39602691 -0.00517833 C5.05397025 -0.00848099 7.71166292 0.00254317 10.36958313 0.01345825 C12.27147923 0.0140222 14.17337576 0.01370613 16.07527161 0.01257324 C21.24645458 0.01199808 26.41754526 0.02377879 31.58870673 0.03772116 C36.9899294 0.05020134 42.39115405 0.05139687 47.79238892 0.05377197 C58.02398242 0.05999473 68.25553333 0.0764163 78.48710805 0.09647095 C90.13386664 0.11880522 101.78062724 0.12981716 113.4274019 0.13986182 C137.38902827 0.16078184 161.35061679 0.19597326 185.31221008 0.24050903 C185.16152554 1.98752407 185.00850277 3.73433753 184.85450745 5.48106384 C184.72706587 6.94023082 184.72706587 6.94023082 184.59704971 8.42887592 C184.00505545 14.2724121 182.72929037 19.98827278 181.52070618 25.73001099 C181.06143287 27.93173496 180.6261296 30.13739664 180.19111633 32.34402466 C178.38129447 41.19083702 176.4559863 48.29405549 169.68721008 54.74050903 C167.31221008 56.24050903 167.31221008 56.24050903 164.31221008 56.24050903 C165.10885071 55.54828247 165.10885071 55.54828247 165.92158508 54.84207153 C166.62799133 54.18980591 167.33439758 53.53754028 168.06221008 52.86550903 C168.75830383 52.23902466 169.45439758 51.61254028 170.17158508 50.96707153 C179.79181596 38.71356578 181.08671243 13.68592551 183.31221008 2.24050903 C119.29221008 2.24050903 55.27221008 2.24050903 -10.68778992 2.24050903 C-7.00669094 -0.21355695 -4.25532745 -0.0334003 0 0 Z " fill="#0A598F" transform="translate(174.6877899169922,6.759490966796875)"/>
<path d="M0 0 C-8.63334889 4.82122081 -16.24282343 5.15879673 -26 5 C-26 5.66 -26 6.32 -26 7 C-26.99 6.67 -27.98 6.34 -29 6 C-30.37082098 5.91193036 -31.74554038 5.87800449 -33.1191864 5.87974548 C-33.95631165 5.87837082 -34.79343689 5.87699615 -35.65592957 5.87557983 C-36.57086685 5.87917511 -37.48580414 5.88277039 -38.4284668 5.88647461 C-39.39450836 5.88632858 -40.36054993 5.88618256 -41.35586548 5.8860321 C-44.55367263 5.88672959 -47.75142176 5.89451438 -50.94921875 5.90234375 C-53.1645352 5.90420851 -55.37985206 5.90563214 -57.59516907 5.90663147 C-63.42966854 5.91045207 -69.26414317 5.92027849 -75.09863281 5.93133545 C-81.05077783 5.94155937 -87.00292686 5.9461312 -92.95507812 5.95117188 C-104.63672967 5.96190114 -116.31836277 5.97897211 -128 6 C-128.33 6.66 -128.66 7.32 -129 8 C-129.66 8 -130.32 8 -131 8 C-131 28.46 -131 48.92 -131 70 C-129.68 70.33 -128.36 70.66 -127 71 C-128.98 71 -130.96 71 -133 71 C-133 48.56 -133 26.12 -133 3 C-119.94630859 2.94392578 -119.94630859 2.94392578 -106.62890625 2.88671875 C-100.40789374 2.85258413 -94.18691366 2.8165923 -87.96592999 2.77792263 C-79.91162991 2.72810395 -71.85738308 2.68263611 -63.80297852 2.65356445 C-57.42483341 2.63052906 -51.04684092 2.59706966 -44.66881698 2.55129844 C-41.29434631 2.52744048 -37.92002608 2.50866328 -34.5454731 2.50238609 C-30.77040391 2.49273845 -26.99588138 2.46466922 -23.22094727 2.43237305 C-21.55829834 2.43452568 -21.55829834 2.43452568 -19.86206055 2.4367218 C-13.99394093 2.36590129 -9.19107262 1.76806798 -3.73441982 -0.45660686 C-2 -1 -2 -1 0 0 Z " fill="#1069A0" transform="translate(339,65)"/>
<path d="M0 0 C1.41345703 0.02803711 1.41345703 0.02803711 2.85546875 0.05664062 C8.73969089 0.29184446 12.26444502 0.9054959 16.75 4.8125 C21.88215165 12.51072747 19.89785542 24.95876604 19.8828125 33.90234375 C19.88348836 35.33761105 19.88446072 36.77287823 19.88571167 38.20814514 C19.88717587 41.19924014 19.8850759 44.19030502 19.88037109 47.18139648 C19.87467981 50.98124311 19.87795722 54.78101897 19.88394356 58.580863 C19.88758837 61.5400087 19.88639266 64.49913814 19.88381577 67.45828438 C19.88315702 68.8578651 19.88393729 70.2574474 19.88629532 71.65702629 C19.9158911 94.1542683 19.9158911 94.1542683 17.1875 100.375 C11.90149347 105.66100653 6.61471754 105.9990839 -0.5625 106.125 C-6.81165128 106.10473248 -6.81165128 106.10473248 -10.25 103.8125 C-8.94804688 103.77511719 -7.64609375 103.73773438 -6.3046875 103.69921875 C-4.57809743 103.63353326 -2.85153619 103.56708682 -1.125 103.5 C-0.2690625 103.47744141 0.586875 103.45488281 1.46875 103.43164062 C6.52987061 103.21751629 10.48339012 102.82305183 14.75 99.8125 C17.05011097 95.57140812 17.02825111 91.42825804 16.99291992 86.72094727 C16.99481827 85.92030853 16.99671661 85.1196698 16.99867249 84.29476929 C17.00236797 81.65604769 16.99169201 79.01760327 16.98046875 76.37890625 C16.97927594 74.53954602 16.978824 72.70018518 16.9790802 70.86082458 C16.97751735 67.00833311 16.96924382 63.15593483 16.95581055 59.3034668 C16.93883308 54.37288432 16.93499605 49.44240429 16.93575573 44.511796 C16.93548336 40.71391325 16.9299911 36.91605275 16.92275429 33.11817741 C16.91957889 31.30055853 16.91760286 29.48293713 16.91686058 27.66531563 C16.91468435 25.12131615 16.90591213 22.57742362 16.89526367 20.03344727 C16.89571686 19.28676285 16.89617004 18.54007843 16.89663696 17.77076721 C16.8717495 13.68957657 16.69236597 9.79239005 15.75 5.8125 C13.93298142 4.40395334 13.93298142 4.40395334 11.75 3.8125 C10.76 3.4825 9.77 3.1525 8.75 2.8125 C5.4000679 2.5608261 2.04591487 2.58132783 -1.3125 2.5625 C-2.69791992 2.5315625 -2.69791992 2.5315625 -4.11132812 2.5 C-4.99369141 2.49484375 -5.87605469 2.4896875 -6.78515625 2.484375 C-7.99764038 2.47035645 -7.99764038 2.47035645 -9.23461914 2.45605469 C-9.89969482 2.57368164 -10.56477051 2.69130859 -11.25 2.8125 C-13.26789444 5.83934167 -13.50186601 6.4254168 -13.5284729 9.8177948 C-13.53963638 10.62967758 -13.55079987 11.44156036 -13.56230164 12.27804565 C-13.56446182 13.16493073 -13.56662201 14.0518158 -13.56884766 14.96557617 C-13.57889328 15.90235703 -13.5889389 16.83913788 -13.59928894 17.80430603 C-13.6302116 20.90468729 -13.64718136 24.00498184 -13.6640625 27.10546875 C-13.68276683 29.25353242 -13.70233969 31.40158868 -13.7227478 33.54963684 C-13.77415256 39.20652916 -13.81373364 44.86344532 -13.85089111 50.52044678 C-13.89087848 56.29168639 -13.94199482 62.0628261 -13.9921875 67.83398438 C-14.08904558 79.16008616 -14.17341873 90.48624424 -14.25 101.8125 C-16.88802869 99.17447131 -16.50432229 97.24513897 -16.54327393 93.65383911 C-16.54236755 92.78991547 -16.54146118 91.92599182 -16.54052734 91.03588867 C-16.54724457 90.12679245 -16.55396179 89.21769623 -16.56088257 88.28105164 C-16.57993998 85.26413564 -16.58379089 82.24744126 -16.5859375 79.23046875 C-16.59236091 77.13780118 -16.59908892 75.04513452 -16.60610962 72.95246887 C-16.61810237 68.5600069 -16.62178848 64.16762368 -16.62060547 59.77514648 C-16.62040236 54.14581158 -16.64768699 48.51698201 -16.68214989 42.88776684 C-16.70438745 38.56319357 -16.70844394 34.23874241 -16.70738602 29.91411781 C-16.70974739 27.83887302 -16.71860097 25.76362513 -16.73405075 23.68843651 C-16.75364347 20.78436323 -16.74789857 17.88138579 -16.73583984 14.97729492 C-16.74707886 14.11944397 -16.75831787 13.26159302 -16.76989746 12.37774658 C-16.72710109 8.3224948 -16.56440906 6.3092371 -14.34463501 2.80220032 C-10.01711571 -1.30852374 -5.65743553 -0.22462227 0 0 Z " fill="#0D5685" transform="translate(620.25,147.1875)"/>
<path d="M0 0 C0.20426709 3.08777477 0.28312009 6.08622692 0.2746582 9.17553711 C0.27976913 10.1268602 0.28488007 11.07818329 0.29014587 12.05833435 C0.30408835 15.21473415 0.3030816 18.37091675 0.30078125 21.52734375 C0.30466565 23.71448346 0.30899978 25.90162241 0.31376648 28.08876038 C0.32123873 32.67793216 0.32093015 37.26702702 0.31567383 41.85620117 C0.30987816 47.74571965 0.32680785 53.63492375 0.3500185 59.52439022 C0.36472949 64.04274852 0.36563113 68.56103065 0.36250877 73.07940865 C0.36302332 75.25119207 0.36828594 77.42297961 0.37832069 79.59473991 C0.39061659 82.62839225 0.38393453 85.66142639 0.37231445 88.69506836 C0.38378006 90.04873505 0.38378006 90.04873505 0.39547729 91.42974854 C0.38846298 92.25556931 0.38144867 93.08139008 0.3742218 93.93223572 C0.37438954 94.6495584 0.37455729 95.36688108 0.37473011 96.10594082 C-0.11768285 98.5948235 -1.00854782 99.46674167 -3 101 C-8.07856469 102.13754876 -12.77309534 101.97382427 -17.9375 101.5625 C-18.62134766 101.51029297 -19.30519531 101.45808594 -20.00976562 101.40429688 C-21.67371169 101.27630102 -23.3369473 101.13912281 -25 101 C-25 100.67 -25 100.34 -25 100 C-24.37432129 99.98018066 -23.74864258 99.96036133 -23.10400391 99.93994141 C-20.27723481 99.84485774 -17.45122185 99.73511254 -14.625 99.625 C-13.64015625 99.5940625 -12.6553125 99.563125 -11.640625 99.53125 C-10.69960938 99.49257812 -9.75859375 99.45390625 -8.7890625 99.4140625 C-7.91975098 99.3826416 -7.05043945 99.3512207 -6.15478516 99.31884766 C-3.79038206 99.18770567 -3.79038206 99.18770567 -2 97 C-1.80109958 94.00288232 -1.72736088 91.09813348 -1.74121094 88.09985352 C-1.7377063 87.17779114 -1.73420166 86.25572876 -1.73059082 85.3057251 C-1.72176236 82.2467097 -1.72762708 79.18792415 -1.734375 76.12890625 C-1.73302856 74.00902766 -1.7310882 71.88914938 -1.72857666 69.76927185 C-1.72562379 65.32133043 -1.72992786 60.87346922 -1.73925781 56.42553711 C-1.75064547 50.71767819 -1.7440982 45.01000748 -1.73211288 39.30215549 C-1.72489278 34.92277097 -1.72718304 30.5434312 -1.73236847 26.16404533 C-1.73370491 24.0592541 -1.73205746 21.95445884 -1.72740936 19.84967232 C-1.72234247 16.90951876 -1.73005708 13.96967169 -1.74121094 11.02954102 C-1.73716248 10.15514877 -1.73311401 9.28075653 -1.72894287 8.37986755 C-1.75484769 3.39377134 -1.75484769 3.39377134 -4 -1 C-7.56189082 -1.66406774 -11.19613029 -1.46288613 -14.8125 -1.4375 C-15.81087891 -1.45748047 -16.80925781 -1.47746094 -17.83789062 -1.49804688 C-22.38321065 -1.49501868 -25.18939594 -1.49161168 -29.13671875 0.90234375 C-32.56417644 4.76092819 -32.15422157 8.19744175 -32.16113281 13.1340332 C-32.16609772 13.97485443 -32.17106262 14.81567566 -32.17617798 15.68197632 C-32.1908171 18.47158621 -32.19760485 21.26113921 -32.203125 24.05078125 C-32.20887544 25.98650617 -32.21463318 27.92223106 -32.22039795 29.85795593 C-32.23091321 33.92085028 -32.2367523 37.98372481 -32.24023438 42.04663086 C-32.24571727 47.25213293 -32.26973874 52.45737318 -32.29820633 57.66279316 C-32.31683363 61.66308862 -32.32203838 65.66332107 -32.32357025 69.66365623 C-32.32659759 71.58259702 -32.33462883 73.50153668 -32.34775543 75.42043495 C-32.36481626 78.10641991 -32.36293552 80.791766 -32.35644531 83.4777832 C-32.3656601 84.27017899 -32.37487488 85.06257477 -32.3843689 85.87898254 C-32.34161565 91.52921502 -31.12106109 94.72182327 -27.3125 98.8125 C-26.879375 99.204375 -26.44625 99.59625 -26 100 C-29.27914568 99.43463006 -30.93380808 98.6296988 -33 96 C-35.19932874 91.67479177 -35.2962329 87.60054458 -35.29052734 82.84838867 C-35.29724457 82.04120895 -35.30396179 81.23402924 -35.31088257 80.40238953 C-35.32983938 77.74085285 -35.33378571 75.07956869 -35.3359375 72.41796875 C-35.3423675 70.56097817 -35.34909602 68.70398859 -35.35610962 66.84700012 C-35.36807692 62.95583753 -35.37179105 59.06476368 -35.37060547 55.17358398 C-35.37040242 50.20039011 -35.39769254 45.22776857 -35.43214989 40.2547102 C-35.45444677 36.41898513 -35.45844214 32.58339713 -35.45738602 28.74761391 C-35.45973823 26.91487978 -35.46854031 25.08214166 -35.48405075 23.24947166 C-35.50376563 20.67917827 -35.49785148 18.11011032 -35.48583984 15.53979492 C-35.49707886 14.79095032 -35.50831787 14.04210571 -35.51989746 13.27056885 C-35.45691689 7.9360086 -34.27428261 3.31420224 -31 -1 C-26.69699607 -3.57787837 -22.53074368 -3.5181737 -17.625 -3.75 C-16.78710938 -3.80542969 -15.94921875 -3.86085937 -15.0859375 -3.91796875 C-9.38111536 -4.21397367 -4.2837377 -4.2837377 0 0 Z " fill="#094C7A" transform="translate(43,151)"/>
<path d="M0 0 C1.09199707 0.00842926 1.09199707 0.00842926 2.20605469 0.01702881 C2.9742453 0.01513046 3.74243591 0.01323212 4.53390503 0.01127625 C7.09643525 0.00754914 9.65868586 0.01832799 12.22119141 0.02947998 C14.02497322 0.03067439 15.82875566 0.03112439 17.63253784 0.03086853 C21.44093657 0.03243843 25.249242 0.04074521 29.05761719 0.05413818 C33.83770993 0.07076962 38.61769761 0.07487905 43.3978157 0.07431221 C65.87510466 0.07503086 88.31530011 0.36982585 110.77587891 1.25994873 C110.97774158 6.88581449 110.2324544 11.94607203 109.09619141 17.44744873 C108.92336639 18.30878418 108.75054138 19.17011963 108.57247925 20.05755615 C108.20742313 21.87012968 107.83913047 23.68205406 107.46777344 25.49334717 C106.90290912 28.25004071 106.34831431 31.00864665 105.79541016 33.76776123 C105.43793876 35.5361121 105.07988518 37.3043454 104.72119141 39.07244873 C104.47418991 40.29774292 104.47418991 40.29774292 104.22219849 41.54779053 C103.26689528 46.19077216 102.13907338 50.71950334 100.77587891 55.25994873 C100.44587891 55.25994873 100.11587891 55.25994873 99.77587891 55.25994873 C100.54543607 44.64873095 102.79092647 34.31724211 104.84008789 23.89593506 C105.32374901 21.4281452 105.80190581 18.95933234 106.27978516 16.49041748 C106.50475426 15.36218819 106.50475426 15.36218819 106.73426819 14.21116638 C107.45306568 10.49367402 107.84130564 7.0385656 107.77587891 3.25994873 C105.94663124 3.26327965 105.94663124 3.26327965 104.08042908 3.26667786 C92.53292902 3.28703556 80.98543266 3.30198135 69.43791866 3.3117609 C63.50263147 3.31695782 57.56735887 3.32399688 51.63208008 3.33538818 C45.89379802 3.34633126 40.15552993 3.35224954 34.41723824 3.35482597 C32.23863061 3.35665979 30.06002366 3.36024033 27.88142204 3.36567879 C16.13364126 3.39381256 4.48504931 3.28452383 -7.22412109 2.25994873 C-4.75621843 -0.20795393 -3.36770533 0.02129647 0 0 Z " fill="#0C6098" transform="translate(220.22412109375,133.74005126953125)"/>
<path d="M0 0 C0.33 0 0.66 0 1 0 C0.57010256 11.83890476 -1.54084818 23.15397399 -3.8125 34.75 C-6.06798538 46.34030832 -8.18842692 57.92215312 -9.93359375 69.6015625 C-12.04010127 83.67299857 -14.61979113 97.64346342 -17.25 111.625 C-17.71391831 114.10800257 -18.1774615 116.59107527 -18.640625 119.07421875 C-19.75612018 125.05028944 -20.87614039 131.02549697 -22 137 C-18.11361788 135.15501886 -14.86952274 132.70998215 -11.5 130.0625 C-10.36471644 129.1782145 -9.22930287 128.29409589 -8.09375 127.41015625 C-7.0728125 126.61480469 -6.051875 125.81945312 -5 125 C-3.66978271 123.9958587 -2.33804096 122.99369219 -1 122 C-0.34 122.33 0.32 122.66 1 123 C-4.76758363 127.80253519 -10.58480229 132.52431829 -16.5625 137.0625 C-17.55378906 137.81660156 -18.54507812 138.57070313 -19.56640625 139.34765625 C-22 141 -22 141 -24 141 C-24.36203851 133.46948144 -22.98449832 126.43379095 -21.59375 119.05078125 C-21.34638322 117.70669495 -21.09977354 116.36246912 -20.85388184 115.01811218 C-20.20877644 111.49924346 -19.55602582 107.98184387 -18.90081787 104.46484375 C-17.85084856 98.82663488 -16.80867695 93.1870152 -15.77400208 87.54598045 C-15.41233931 85.58381812 -15.04478155 83.6227453 -14.67712402 81.66169739 C-14.45689575 80.46663071 -14.23666748 79.27156403 -14.00976562 78.0402832 C-13.81435181 76.99185745 -13.61893799 75.9434317 -13.41760254 74.86323547 C-13.02787755 72.19113864 -12.91986747 69.69495997 -13 67 C-12.34 67 -11.68 67 -11 67 C-10.96116699 66.33242676 -10.92233398 65.66485352 -10.88232422 64.97705078 C-10.24387841 55.81881492 -8.72880301 46.9006253 -7.125 37.875 C-6.85143763 36.31462764 -6.57840977 34.75416148 -6.3059082 33.19360352 C-5.90386719 30.89146538 -5.5015053 28.58939122 -5.09706116 26.28767395 C-3.95818795 19.8004073 -2.87628106 13.3044317 -1.85009766 6.79833984 C-1.10772321 2.21544643 -1.10772321 2.21544643 0 0 Z " fill="#0C5C8F" transform="translate(336,253)"/>
<path d="M0 0 C-0.96099609 0.38478516 -0.96099609 0.38478516 -1.94140625 0.77734375 C-9.6181042 4.17522645 -14.72929829 8.39584195 -17.94012165 16.32024765 C-20.88321979 26.84233222 -20.44114254 37.55296931 -20.43237305 48.38378906 C-20.44140041 50.64169345 -20.45173001 52.89959295 -20.46325684 55.15748596 C-20.49073835 61.25783357 -20.50009935 67.35808795 -20.50611091 73.45848942 C-20.51551762 79.84465766 -20.54172287 86.23075691 -20.56611633 92.61688232 C-20.60477387 103.32612557 -20.63315299 114.0353387 -20.65356445 124.74462891 C-20.67460623 135.7697212 -20.70190907 146.79476903 -20.73754883 157.81982422 C-20.73974765 158.50069352 -20.74194648 159.18156283 -20.74421193 159.88306454 C-20.75528238 163.29916958 -20.76647504 166.71527421 -20.77772844 170.13137865 C-20.87076245 198.42087961 -20.94220935 226.7104066 -21 255 C-21.33 255 -21.66 255 -22 255 C-22.0913387 225.50445159 -22.16208422 196.00890989 -22.20426132 166.51324965 C-22.20926388 163.02746893 -22.21444119 159.5416885 -22.21972656 156.0559082 C-22.2207758 155.36198038 -22.22182505 154.66805255 -22.22290608 153.95309661 C-22.24029003 142.73136093 -22.27181656 131.50970759 -22.30861118 120.28802069 C-22.34607672 108.76523176 -22.36794847 97.24250064 -22.37635398 85.719652 C-22.38156351 79.25091278 -22.39378701 72.78236004 -22.42292023 66.31368065 C-22.45013706 60.22095814 -22.45843219 54.12849836 -22.45243073 48.03572083 C-22.45352814 45.80370975 -22.46144435 43.57168959 -22.4768219 41.33973122 C-22.65021411 14.8669615 -22.65021411 14.8669615 -12.8671875 4.6640625 C-8.90872521 1.13622791 -5.41785838 -1.78234557 0 0 Z " fill="#0A5182" transform="translate(163,10)"/>
<path d="M0 0 C0.33 0 0.66 0 1 0 C1 57.42 1 114.84 1 174 C0.67 174 0.34 174 0 174 C0 163.44 0 152.88 0 142 C-0.66 141.67 -1.32 141.34 -2 141 C-2 122.52 -2 104.04 -2 85 C-1.34 85 -0.68 85 0 85 C0 56.95 0 28.9 0 0 Z " fill="#1080BE" transform="translate(61,113)"/>
<path d="M0 0 C1.74120117 0.08507812 1.74120117 0.08507812 3.51757812 0.171875 C6.36657886 0.31256639 9.21459263 0.46389982 12.0625 0.625 C12.0625 0.955 12.0625 1.285 12.0625 1.625 C11.35230713 1.63958252 10.64211426 1.65416504 9.91040039 1.66918945 C6.64809222 1.74431625 3.38673602 1.84076133 0.125 1.9375 C-1.55045898 1.97133789 -1.55045898 1.97133789 -3.25976562 2.00585938 C-14.22572012 2.35959984 -23.17940509 4.44711903 -31 12.625 C-38.12435173 21.57553832 -39.9898247 32.60020983 -41.625 43.625 C-42.01907151 46.18837778 -42.41857014 48.75092877 -42.82421875 51.3125 C-42.99139404 52.43011719 -43.15856934 53.54773437 -43.33081055 54.69921875 C-43.88121328 57.3535553 -44.58717267 59.29496786 -45.9375 61.625 C-46.25155163 54.33900217 -45.0736967 47.52691354 -43.75 40.375 C-43.55341797 39.22386719 -43.35683594 38.07273438 -43.15429688 36.88671875 C-40.99432036 25.09657 -37.72796671 13.18409131 -27.578125 5.94140625 C-18.08611881 -0.05581584 -11.04601474 -0.62797128 0 0 Z " fill="#0C5A8D" transform="translate(414.9375,7.375)"/>
<path d="M0 0 C3.63452154 3.44129382 5.95034645 6.45529398 6.11352539 11.53173828 C6.11336682 13.04460559 6.10770365 14.55747854 6.09765625 16.0703125 C6.0962413 16.86654022 6.09482635 17.66276794 6.09336853 18.48312378 C6.08776345 21.0304538 6.07521014 23.57769647 6.0625 26.125 C6.05748565 27.85025915 6.05292263 29.57551967 6.04882812 31.30078125 C6.03779237 35.53388791 6.02052436 39.76692914 6 44 C5.67 44 5.34 44 5 44 C4.9906543 43.00669678 4.98130859 42.01339355 4.97167969 40.98999023 C4.93158687 37.27893428 4.86577688 33.56869064 4.79248047 29.8581543 C4.76438197 28.25702406 4.74311241 26.65575798 4.72900391 25.05444336 C4.7074183 22.74262504 4.66069442 20.43242086 4.609375 18.12109375 C4.60814636 17.41351425 4.60691772 16.70593475 4.60565186 15.97691345 C4.44596048 10.46849891 3.20130708 7.35614551 0 3 C-4.39450696 -0.00403949 -8.04384897 -0.38507082 -13.296875 -0.44140625 C-14.30914154 -0.46121803 -14.30914154 -0.46121803 -15.34185791 -0.48143005 C-17.47794892 -0.52203045 -19.6136124 -0.54392901 -21.75 -0.5625 C-23.90054225 -0.58629876 -26.0506828 -0.61436234 -28.20098877 -0.65428162 C-30.14131493 -0.6897072 -32.08190576 -0.70962436 -34.02246094 -0.72875977 C-37 -1 -37 -1 -39 -3 C-10.62115411 -5.92333595 -10.62115411 -5.92333595 0 0 Z " fill="#034C7F" transform="translate(581,101)"/>
<path d="M0 0 C-0.51036765 8.27086631 -1.92916921 16.12609651 -3.8125 24.1875 C-4.06064453 25.31091797 -4.30878906 26.43433594 -4.56445312 27.59179688 C-7.18027633 38.92703075 -10.47705253 46.00256394 -20 53 C-23.73169069 55.17924906 -26.60136531 56 -31 56 C-31 55.34 -31 54.68 -31 54 C-30.28714844 53.78085938 -29.57429688 53.56171875 -28.83984375 53.3359375 C-21.39298428 50.87035549 -15.58550816 48.62865398 -11.640625 41.56640625 C-6.20287219 28.92866592 -4.13374426 14.52144458 -2 1 C-4.31 1 -6.62 1 -9 1 C-9 0.67 -9 0.34 -9 0 C-2.25 -1.125 -2.25 -1.125 0 0 Z " fill="#0B5C8E" transform="translate(508,135)"/>
<path d="M0 0 C4.07983416 1.81325963 6.64217896 3.18224907 9 7 C11.27242744 16.453992 10.09025411 27.32275346 10 37 C9.34 37 8.68 37 8 37 C7.97494385 36.24380371 7.9498877 35.48760742 7.92407227 34.70849609 C7.80763114 31.26384541 7.68512338 27.81943592 7.5625 24.375 C7.52318359 23.18519531 7.48386719 21.99539062 7.44335938 20.76953125 C7.40146484 19.61582031 7.35957031 18.46210938 7.31640625 17.2734375 C7.27974854 16.21560059 7.24309082 15.15776367 7.20532227 14.06787109 C6.9980854 10.97139252 6.67403574 8.03054401 6 5 C4.16666667 3.66666667 4.16666667 3.66666667 2 3 C1.01 2.34 0.02 1.68 -1 1 C-0.67 0.67 -0.34 0.34 0 0 Z " fill="#116191" transform="translate(630,148)"/>
<path d="M0 0 C-0.96099609 0.38478516 -0.96099609 0.38478516 -1.94140625 0.77734375 C-8.83257146 3.82753163 -13.39059198 7.2939411 -17 14 C-18.36089752 17.95212674 -19.25414258 21.89204685 -20 26 C-20.33245748 27.6668416 -20.66549716 29.33356766 -21 31 C-21.33 31 -21.66 31 -22 31 C-22.60672702 21.74741291 -20.68338528 13.82778442 -14.6875 6.5625 C-10.58537599 2.28431917 -6.18384114 -2.03433554 0 0 Z " fill="#0D5C8C" transform="translate(163,10)"/>
<path d="M0 0 C0.66 0.33 1.32 0.66 2 1 C-3.76758363 5.80253519 -9.58480229 10.52431829 -15.5625 15.0625 C-16.55378906 15.81660156 -17.54507812 16.57070313 -18.56640625 17.34765625 C-21 19 -21 19 -23 19 C-23 16.36 -23 13.72 -23 11 C-22.34 12.32 -21.68 13.64 -21 15 C-17.06293174 13.29200715 -13.84912811 10.6939578 -10.5 8.0625 C-9.36471644 7.1782145 -8.22930287 6.29409589 -7.09375 5.41015625 C-6.0728125 4.61480469 -5.051875 3.81945312 -4 3 C-2.66978271 1.9958587 -1.33804096 0.99369219 0 0 Z " fill="#0F5B8B" transform="translate(335,375)"/>
<path d="M0 0 C0 0.66 0 1.32 0 2 C4.29 2 8.58 2 13 2 C13 2.33 13 2.66 13 3 C8.54172074 3.0578304 4.0835372 3.09353855 -0.375 3.125 C-1.64601563 3.14175781 -2.91703125 3.15851563 -4.2265625 3.17578125 C-5.43828125 3.18222656 -6.65 3.18867187 -7.8984375 3.1953125 C-9.01911621 3.20578613 -10.13979492 3.21625977 -11.29443359 3.22705078 C-14 3 -14 3 -16 1 C-13.70839646 0.83246763 -11.41671509 0.66599948 -9.125 0.5 C-7.84882812 0.4071875 -6.57265625 0.314375 -5.2578125 0.21875 C-3.50763316 0.10123196 -1.75412035 0 0 0 Z " fill="#0D6FA8" transform="translate(558,97)"/>
<path d="M0 0 C16.45968865 -0.57866093 16.45968865 -0.57866093 23 3 C25.5 5.6875 25.5 5.6875 27 8 C26.01 8 25.02 8 24 8 C23.13375 7.071875 23.13375 7.071875 22.25 6.125 C16.48883627 0.68390092 7.47031981 1.42687542 0 1 C0 0.67 0 0.34 0 0 Z " fill="#0C5A8A" transform="translate(558,98)"/>
<path d="M0 0 C0.66 0.33 1.32 0.66 2 1 C-0.23624609 7.02066256 -2.57401435 11.33745968 -8 15 C-8.99 15 -9.98 15 -11 15 C-10.45730469 14.50371094 -9.91460937 14.00742187 -9.35546875 13.49609375 C-4.8782367 9.24474008 -1.95856625 5.87569874 0 0 Z " fill="#0E6092" transform="translate(350,48)"/>
<path d="M0 0 C0 3.73869249 -0.90485692 4.36550705 -3.375 7.0625 C-4.31472656 8.10083984 -4.31472656 8.10083984 -5.2734375 9.16015625 C-6.49397067 10.46076965 -7.73879097 11.73879097 -9 13 C-9.33 12.34 -9.66 11.68 -10 11 C-7.17477391 6.32751069 -4.32239956 3.34003602 0 0 Z " fill="#0E689D" transform="translate(388,13)"/>
<path d="M0 0 C0.99 0.33 1.98 0.66 3 1 C5.05893621 1.22325814 7.12233653 1.40705759 9.1875 1.5625 C10.27417969 1.64628906 11.36085938 1.73007813 12.48046875 1.81640625 C13.72763672 1.90728516 13.72763672 1.90728516 15 2 C15 2.33 15 2.66 15 3 C7.41 3 -0.18 3 -8 3 C-8 2.67 -8 2.34 -8 2 C-5.36 2 -2.72 2 0 2 C0 1.34 0 0.68 0 0 Z " fill="#107FBD" transform="translate(84,97)"/>
<path d="M0 0 C5.75 2.75 5.75 2.75 8 5 C7.625 7.125 7.625 7.125 7 9 C6.87625 8.071875 6.87625 8.071875 6.75 7.125 C6.20076457 4.84957521 6.20076457 4.84957521 4.125 3.875 C3.42375 3.58625 2.7225 3.2975 2 3 C1.01 2.34 0.02 1.68 -1 1 C-0.67 0.67 -0.34 0.34 0 0 Z " fill="#0E5884" transform="translate(630,148)"/>
<path d="M0 0 C0.268125 0.61875 0.53625 1.2375 0.8125 1.875 C1.95556848 4.2995233 1.95556848 4.2995233 5 6 C3.35 6.66 1.7 7.32 0 8 C0 5.36 0 2.72 0 0 Z " fill="#1771A3" transform="translate(312,386)"/>
<path d="M0 0 C0.33 0.66 0.66 1.32 1 2 C0.195625 2.61875 -0.60875 3.2375 -1.4375 3.875 C-4.03874519 5.74164041 -4.03874519 5.74164041 -5 8 C-5.66 7.67 -6.32 7.34 -7 7 C-5.12050295 3.42895561 -3.82946843 1.45255699 0 0 Z " fill="#0F5A89" transform="translate(16,148)"/>
<path d="M0 0 C0.33 0 0.66 0 1 0 C1 1.98 1 3.96 1 6 C0.67 6 0.34 6 0 6 C0 4.02 0 2.04 0 0 Z " fill="#1E95D6" transform="translate(139,167)"/>
<path d="M0 0 C0.99 0.33 1.98 0.66 3 1 C2.01 1 1.02 1 0 1 C0 0.67 0 0.34 0 0 Z " fill="#209ADB" transform="translate(236,341)"/>
<path d="M0 0 C1 4 1 4 1 4 Z " fill="#1D9BDB" transform="translate(371,40)"/>
<path d="M0 0 C3 1 3 1 3 1 Z " fill="#2298D5" transform="translate(541,303)"/>
<path d="" fill="#1E9AD9" transform="translate(0,0)"/>
<path d="M0 0 C3 1 3 1 3 1 Z " fill="#1A97DB" transform="translate(230,257)"/>
<path d="" fill="#1F98D9" transform="translate(0,0)"/>
<path d="" fill="#209ADE" transform="translate(0,0)"/>
<path d="" fill="#1E96D6" transform="translate(0,0)"/>
<path d="" fill="#1F9BDD" transform="translate(0,0)"/>
<path d="" fill="#1C9ADA" transform="translate(0,0)"/>
<path d="" fill="#1E96D6" transform="translate(0,0)"/>
<path d="" fill="#1F97D7" transform="translate(0,0)"/>
<path d="" fill="#1C9ADC" transform="translate(0,0)"/>
<path d="" fill="#1F93D1" transform="translate(0,0)"/>
<path d="" fill="#1E98D9" transform="translate(0,0)"/>
<path d="M0 0 C2 1 2 1 2 1 Z " fill="#2098D9" transform="translate(83,304)"/>
<path d="M0 0 C2 1 2 1 2 1 Z " fill="#219AD6" transform="translate(539,302)"/>
<path d="" fill="#1D95D6" transform="translate(0,0)"/>
<path d="M0 0 C2 1 2 1 2 1 Z " fill="#1B9ADC" transform="translate(260,273)"/>
<path d="" fill="#1F98D7" transform="translate(0,0)"/>
<path d="M0 0 C2 1 2 1 2 1 Z " fill="#1A9ADF" transform="translate(247,266)"/>
<path d="M0 0 C2 1 2 1 2 1 Z " fill="#1B9BDE" transform="translate(245,265)"/>
<path d="" fill="#1D97D8" transform="translate(0,0)"/>
<path d="" fill="#1E9AD9" transform="translate(0,0)"/>
<path d="" fill="#2098D7" transform="translate(0,0)"/>
<path d="" fill="#1C9AD9" transform="translate(0,0)"/>
<path d="" fill="#2295D1" transform="translate(0,0)"/>
<path d="" fill="#1F9ADB" transform="translate(0,0)"/>
<path d="" fill="#1E9CDD" transform="translate(0,0)"/>
<path d="" fill="#1F99D8" transform="translate(0,0)"/>
<path d="" fill="#2198D9" transform="translate(0,0)"/>
<path d="" fill="#2099D9" transform="translate(0,0)"/>
<path d="" fill="#1C97D9" transform="translate(0,0)"/>
<path d="" fill="#1F97D9" transform="translate(0,0)"/>
<path d="" fill="#2099D6" transform="translate(0,0)"/>
<path d="" fill="#1D9ADA" transform="translate(0,0)"/>
<path d="" fill="#1F9DDF" transform="translate(0,0)"/>
<path d="M0 0 C2 1 2 1 2 1 Z " fill="#209CDA" transform="translate(540,97)"/>
<path d="" fill="#1E95D4" transform="translate(0,0)"/>
<path d="M0 0 C2 1 2 1 2 1 Z " fill="#209DDE" transform="translate(486,71)"/>
<path d="M0 0 C2 1 2 1 2 1 Z " fill="#229DDF" transform="translate(478,71)"/>
<path d="M0 0 C2 1 2 1 2 1 Z " fill="#209DE1" transform="translate(470,71)"/>
<path d="M0 0 C2 1 2 1 2 1 Z " fill="#209FE0" transform="translate(294,71)"/>
<path d="M0 0 C2 1 2 1 2 1 Z " fill="#209DE0" transform="translate(278,71)"/>
<path d="M0 0 C2 1 2 1 2 1 Z " fill="#1F9DE1" transform="translate(246,71)"/>
<path d="M0 0 C2 1 2 1 2 1 Z " fill="#219FE1" transform="translate(222,71)"/>
<path d="M0 0 C2 1 2 1 2 1 Z " fill="#1E9EDF" transform="translate(324,70)"/>
<path d="" fill="#1D98D8" transform="translate(0,0)"/>
<path d="" fill="#1E98D7" transform="translate(0,0)"/>
<path d="" fill="#2196D4" transform="translate(0,0)"/>
<path d="" fill="#2299D7" transform="translate(0,0)"/>
<path d="" fill="#2397D0" transform="translate(0,0)"/>
<path d="" fill="#2793CD" transform="translate(0,0)"/>
<path d="" fill="#2996CD" transform="translate(0,0)"/>
<path d="" fill="#2098D7" transform="translate(0,0)"/>
<path d="" fill="#2199DA" transform="translate(0,0)"/>
<path d="" fill="#1E99D7" transform="translate(0,0)"/>
<path d="" fill="#2097D9" transform="translate(0,0)"/>
<path d="" fill="#2097D6" transform="translate(0,0)"/>
<path d="" fill="#2598D6" transform="translate(0,0)"/>
<path d="" fill="#229CDC" transform="translate(0,0)"/>
<path d="" fill="#219DDA" transform="translate(0,0)"/>
<path d="" fill="#1F99D8" transform="translate(0,0)"/>
<path d="" fill="#2297D4" transform="translate(0,0)"/>
<path d="" fill="#219ADA" transform="translate(0,0)"/>
<path d="" fill="#1D97D8" transform="translate(0,0)"/>
<path d="" fill="#1D9DDE" transform="translate(0,0)"/>
<path d="" fill="#2395D2" transform="translate(0,0)"/>
<path d="" fill="#2195D3" transform="translate(0,0)"/>
<path d="" fill="#2195D5" transform="translate(0,0)"/>
<path d="" fill="#2396D9" transform="translate(0,0)"/>
<path d="" fill="#1E97DB" transform="translate(0,0)"/>
<path d="" fill="#2196D4" transform="translate(0,0)"/>
<path d="" fill="#2298D8" transform="translate(0,0)"/>
<path d="" fill="#2097D5" transform="translate(0,0)"/>
<path d="" fill="#2495D2" transform="translate(0,0)"/>
<path d="" fill="#1E99D8" transform="translate(0,0)"/>
<path d="" fill="#2098D7" transform="translate(0,0)"/>
<path d="" fill="#219ADA" transform="translate(0,0)"/>
<path d="" fill="#2198DB" transform="translate(0,0)"/>
<path d="" fill="#1E99DA" transform="translate(0,0)"/>
<path d="" fill="#1E98D8" transform="translate(0,0)"/>
<path d="" fill="#1C98D8" transform="translate(0,0)"/>
<path d="" fill="#1D98DF" transform="translate(0,0)"/>
<path d="" fill="#1E9BDD" transform="translate(0,0)"/>
<path d="" fill="#1E98DA" transform="translate(0,0)"/>
<path d="" fill="#219ADA" transform="translate(0,0)"/>
<path d="" fill="#1E99DA" transform="translate(0,0)"/>
<path d="" fill="#209BDA" transform="translate(0,0)"/>
<path d="" fill="#209BDB" transform="translate(0,0)"/>
<path d="" fill="#2795CB" transform="translate(0,0)"/>
<path d="" fill="#2196D5" transform="translate(0,0)"/>
<path d="" fill="#1F9CDF" transform="translate(0,0)"/>
<path d="" fill="#2791CC" transform="translate(0,0)"/>
<path d="" fill="#1D9EE0" transform="translate(0,0)"/>
<path d="" fill="#2490C9" transform="translate(0,0)"/>
<path d="" fill="#2296D2" transform="translate(0,0)"/>
<path d="" fill="#1A98DC" transform="translate(0,0)"/>
<path d="" fill="#1F9CDC" transform="translate(0,0)"/>
<path d="" fill="#1D9ADA" transform="translate(0,0)"/>
<path d="" fill="#1D98D8" transform="translate(0,0)"/>
<path d="" fill="#2098D7" transform="translate(0,0)"/>
<path d="" fill="#1F99D9" transform="translate(0,0)"/>
<path d="" fill="#1F9CDC" transform="translate(0,0)"/>
<path d="" fill="#1F9CDC" transform="translate(0,0)"/>
<path d="" fill="#1B9ADD" transform="translate(0,0)"/>
<path d="" fill="#1E97DA" transform="translate(0,0)"/>
<path d="" fill="#1C93D4" transform="translate(0,0)"/>
<path d="" fill="#229BDB" transform="translate(0,0)"/>
<path d="" fill="#1F9CDE" transform="translate(0,0)"/>
<path d="" fill="#1E97D9" transform="translate(0,0)"/>
<path d="" fill="#2697CF" transform="translate(0,0)"/>
<path d="" fill="#209ADF" transform="translate(0,0)"/>
<path d="" fill="#1E9DDF" transform="translate(0,0)"/>
<path d="" fill="#1B9CDD" transform="translate(0,0)"/>
<path d="" fill="#1E9ADD" transform="translate(0,0)"/>
<path d="" fill="#2097D6" transform="translate(0,0)"/>
<path d="" fill="#1D98DA" transform="translate(0,0)"/>
<path d="" fill="#219CDD" transform="translate(0,0)"/>
<path d="" fill="#1F96D9" transform="translate(0,0)"/>
<path d="" fill="#239BDA" transform="translate(0,0)"/>
<path d="" fill="#1F9CDD" transform="translate(0,0)"/>
<path d="" fill="#219DDE" transform="translate(0,0)"/>
<path d="" fill="#1F96D7" transform="translate(0,0)"/>
<path d="" fill="#1D95D5" transform="translate(0,0)"/>
<path d="" fill="#209BDC" transform="translate(0,0)"/>
<path d="" fill="#209ADC" transform="translate(0,0)"/>
<path d="" fill="#2A94CC" transform="translate(0,0)"/>
<path d="" fill="#2D93C9" transform="translate(0,0)"/>
<path d="" fill="#2B93C7" transform="translate(0,0)"/>
<path d="" fill="#1C99DC" transform="translate(0,0)"/>
<path d="" fill="#2099DA" transform="translate(0,0)"/>
<path d="" fill="#2196D6" transform="translate(0,0)"/>
<path d="" fill="#229BDC" transform="translate(0,0)"/>
<path d="" fill="#2196D3" transform="translate(0,0)"/>
<path d="" fill="#2398D5" transform="translate(0,0)"/>
<path d="" fill="#2297D3" transform="translate(0,0)"/>
<path d="" fill="#1E9BDD" transform="translate(0,0)"/>
<path d="" fill="#23A0E3" transform="translate(0,0)"/>
<path d="" fill="#1E9EE0" transform="translate(0,0)"/>
<path d="" fill="#1F9ADC" transform="translate(0,0)"/>
<path d="" fill="#1E9ADD" transform="translate(0,0)"/>
<path d="" fill="#1E9BDC" transform="translate(0,0)"/>
<path d="" fill="#1E98D9" transform="translate(0,0)"/>
<path d="" fill="#2099DB" transform="translate(0,0)"/>
<path d="" fill="#219BDC" transform="translate(0,0)"/>
<path d="" fill="#209EE0" transform="translate(0,0)"/>
<path d="" fill="#2597D2" transform="translate(0,0)"/>
<path d="" fill="#1D9ADB" transform="translate(0,0)"/>
<path d="" fill="#219DDF" transform="translate(0,0)"/>
<path d="" fill="#2798D2" transform="translate(0,0)"/>
<path d="" fill="#2198D7" transform="translate(0,0)"/>
<path d="" fill="#2499D7" transform="translate(0,0)"/>
<path d="" fill="#2196D3" transform="translate(0,0)"/>
<path d="" fill="#209BDE" transform="translate(0,0)"/>
<path d="" fill="#209AE0" transform="translate(0,0)"/>
<path d="" fill="#2297D6" transform="translate(0,0)"/>
<path d="" fill="#20A0E0" transform="translate(0,0)"/>
<path d="" fill="#229FE1" transform="translate(0,0)"/>
<path d="" fill="#209DDD" transform="translate(0,0)"/>
<path d="" fill="#219EDF" transform="translate(0,0)"/>
<path d="" fill="#229DE0" transform="translate(0,0)"/>
<path d="" fill="#229EE1" transform="translate(0,0)"/>
<path d="" fill="#22A0DF" transform="translate(0,0)"/>
<path d="" fill="#219EDF" transform="translate(0,0)"/>
<path d="" fill="#209DE1" transform="translate(0,0)"/>
<path d="" fill="#22A0E1" transform="translate(0,0)"/>
<path d="" fill="#219EDF" transform="translate(0,0)"/>
<path d="" fill="#219EE0" transform="translate(0,0)"/>
<path d="" fill="#209EE2" transform="translate(0,0)"/>
<path d="" fill="#21A0E2" transform="translate(0,0)"/>
<path d="" fill="#1F9EE0" transform="translate(0,0)"/>
<path d="" fill="#209FE1" transform="translate(0,0)"/>
<path d="" fill="#1E97D7" transform="translate(0,0)"/>
<path d="" fill="#209DDD" transform="translate(0,0)"/>
<path d="" fill="#2199DB" transform="translate(0,0)"/>
<path d="" fill="#239CDC" transform="translate(0,0)"/>
<path d="" fill="#219AD9" transform="translate(0,0)"/>
<path d="" fill="#2294D3" transform="translate(0,0)"/>
<path d="" fill="#2193D0" transform="translate(0,0)"/>
<path d="" fill="#1F9BDA" transform="translate(0,0)"/>
<path d="" fill="#1F98D9" transform="translate(0,0)"/>
<path d="" fill="#209CD9" transform="translate(0,0)"/>
<path d="" fill="#2298D5" transform="translate(0,0)"/>
<path d="" fill="#2196D4" transform="translate(0,0)"/>
<path d="" fill="#2599D2" transform="translate(0,0)"/>
<path d="" fill="#249AD3" transform="translate(0,0)"/>
<path d="" fill="#2896CF" transform="translate(0,0)"/>
<path d="" fill="#2196D6" transform="translate(0,0)"/>
<path d="" fill="#229BD7" transform="translate(0,0)"/>
<path d="" fill="#2199D6" transform="translate(0,0)"/>
<path d="" fill="#239AD4" transform="translate(0,0)"/>
<path d="" fill="#2399D7" transform="translate(0,0)"/>
<path d="" fill="#239AD8" transform="translate(0,0)"/>
<path d="" fill="#2398D7" transform="translate(0,0)"/>
<path d="" fill="#2A94C6" transform="translate(0,0)"/>
</svg>
